<?xml version="1.0" encoding="utf-8"?>
<!-- Generator: Adobe Illustrator 27.5.0, SVG Export Plug-In . SVG Version: 6.00 Build 0)  -->
<svg version="1.1" xmlns="http://www.w3.org/2000/svg" xmlns:xlink="http://www.w3.org/1999/xlink" x="0px" y="0px"
	 viewBox="0 0 750 500" style="enable-background:new 0 0 750 500;" xml:space="preserve">
<g id="Background_Simple">
	<g>
		<path style="fill:#92E3A9;" d="M690.758,100.345c-67.774-63.871-175.417-73.869-268.115-82.407
			c-43.988-4.051-88.367-5.915-132.517-2.87c-3.601,0.248-7.495,0.638-10.127,2.842c-2.628,2.2-3.322,5.817-2.417,8.927
			c0.904,3.11,3.179,5.772,5.758,8.017c8.719,7.593,20.833,11.054,32.477,14.271c-22.158-6.122-42.135-17.962-64.094-24.782
			c-35.96-11.167-80.216-18.976-116.236-4.075c-18.951,7.84-33.723,21.982-45.917,37.101
			c-28.484,35.316-45.184,76.999-59.164,118.667c-14.139,42.14-25.937,85.329-27.261,129.297
			c-0.511,16.975,1.172,35.44,13.791,48.173c19.145,19.312,46.323,13.74,71.23,16.716c1.658,8.34-11.929,10.467-18.187,11.55
			c-3.544,0.613-7.178,1.483-9.94,3.555c-2.763,2.071-4.404,5.643-2.995,8.605c0.807,1.697,2.452,2.946,4.075,4.089
			c31.049,21.875,72.026,28.162,110.213,32.619c46.639,5.443,93.805,4.867,140.739,4.818c61.687-0.064,123.724,0.783,184.643-7.863
			s121.4-27.455,168.731-62.707c24.472-18.227,44.852-41.049,58.662-66.702c11.736-21.8,31.894-44.966,15.821-69.497
			c-3.319-5.065-7.863-9.519-10.349-14.951c-4.748-10.376-0.865-21.951-0.966-32.806
			C728.311,148.448,713.535,121.81,690.758,100.345z"/>
		<path style="opacity:0.49;fill:#FFFFFF;" d="M690.758,100.345c-67.774-63.871-175.417-73.869-268.115-82.407
			c-43.988-4.051-88.367-5.915-132.517-2.87c-3.601,0.248-7.495,0.638-10.127,2.842c-2.628,2.2-3.322,5.817-2.417,8.927
			c0.904,3.11,3.179,5.772,5.758,8.017c8.719,7.593,20.833,11.054,32.477,14.271c-22.158-6.122-42.135-17.962-64.094-24.782
			c-35.96-11.167-80.216-18.976-116.236-4.075c-18.951,7.84-33.723,21.982-45.917,37.101
			c-28.484,35.316-45.184,76.999-59.164,118.667c-14.139,42.14-25.937,85.329-27.261,129.297
			c-0.511,16.975,1.172,35.44,13.791,48.173c19.145,19.312,46.323,13.74,71.23,16.716c1.658,8.34-11.929,10.467-18.187,11.55
			c-3.544,0.613-7.178,1.483-9.94,3.555c-2.763,2.071-4.404,5.643-2.995,8.605c0.807,1.697,2.452,2.946,4.075,4.089
			c31.049,21.875,72.026,28.162,110.213,32.619c46.639,5.443,93.805,4.867,140.739,4.818c61.687-0.064,123.724,0.783,184.643-7.863
			s121.4-27.455,168.731-62.707c24.472-18.227,44.852-41.049,58.662-66.702c11.736-21.8,31.894-44.966,15.821-69.497
			c-3.319-5.065-7.863-9.519-10.349-14.951c-4.748-10.376-0.865-21.951-0.966-32.806
			C728.311,148.448,713.535,121.81,690.758,100.345z"/>
	</g>
</g>
<g id="Sun">
	<g>
		<g>
			<g>
				<line style="fill:#FFFFFF;stroke:#263238;stroke-miterlimit:10;" x1="185.148" y1="249.5" x2="296.135" y2="215.057"/>
				<line style="fill:#FFFFFF;stroke:#263238;stroke-miterlimit:10;" x1="244.457" y1="181.665" x2="193.379" y2="227.052"/>
				<line style="fill:#FFFFFF;stroke:#263238;stroke-miterlimit:10;" x1="253.128" y1="173.961" x2="248.19" y2="178.348"/>
				<line style="fill:#FFFFFF;stroke:#263238;stroke-miterlimit:10;" x1="160.456" y1="227.052" x2="160.456" y2="204.605"/>
				<line style="fill:#FFFFFF;stroke:#263238;stroke-miterlimit:10;" x1="171.68" y1="228.549" x2="196.372" y2="179.912"/>
				<line style="fill:#FFFFFF;stroke:#263238;stroke-miterlimit:10;" x1="125.455" y1="239.488" x2="31.009" y2="188.891"/>
				<line style="fill:#FFFFFF;stroke:#263238;stroke-miterlimit:10;" x1="135.764" y1="245.01" x2="129.298" y2="241.546"/>
				<line style="fill:#FFFFFF;stroke:#263238;stroke-miterlimit:10;" x1="54.595" y1="244.427" x2="12.623" y2="237.145"/>
				<line style="fill:#FFFFFF;stroke:#263238;stroke-miterlimit:10;" x1="131.274" y1="257.73" x2="61.128" y2="245.56"/>
				<line style="fill:#FFFFFF;stroke:#263238;stroke-miterlimit:10;" x1="114.813" y1="286.912" x2="86.379" y2="304.87"/>
				<line style="fill:#FFFFFF;stroke:#263238;stroke-miterlimit:10;" x1="161.204" y1="288.409" x2="162.701" y2="312.353"/>
				<line style="fill:#FFFFFF;stroke:#263238;stroke-miterlimit:10;" x1="185.148" y1="264.465" x2="286.162" y2="292.898"/>
			</g>
			<line style="fill:#FFFFFF;stroke:#263238;stroke-miterlimit:10;" x1="106.378" y1="127.638" x2="101.81" y2="116.002"/>
			<line style="fill:#FFFFFF;stroke:#263238;stroke-miterlimit:10;" x1="147.498" y1="232.378" x2="108.88" y2="134.012"/>
		</g>
		<g>
			
				<ellipse transform="matrix(0.7448 -0.6673 0.6673 0.7448 -130.7672 172.3319)" style="fill:#FFFFFF;stroke:#263238;stroke-miterlimit:10;" cx="159.901" cy="257.114" rx="22.474" ry="22.474"/>
		</g>
		<line style="fill:#FFFFFF;stroke:#263238;stroke-miterlimit:10;" x1="127.266" y1="271.376" x2="52.785" y2="290.697"/>
	</g>
</g>
<g id="Clouds_1_">
	<g>
		<path style="opacity:0.24;" d="M52.307,171.463c0,0,7.822-14.725,23.467-17.485c15.645-2.761,21.627,14.264,25.768,18.406
			c4.141,4.141,5.522-3.681,12.884-3.221c7.362,0.46,9.203,5.062,10.583,7.362c1.381,2.301,6.5-5.283,9.462-4.252
			c2.962,1.031,4.298,4.298,4.298,4.298l10.627,1.794H29.3c0,0-0.92-7.822,6.902-9.663
			C44.025,166.861,49.086,172.383,52.307,171.463z"/>
		<path style="opacity:0.24;" d="M555.492,281.089c-5.209,1.226-4.596,6.434-4.596,6.434h79.969l-7.076-1.195
			c0,0-0.89-2.176-2.862-2.862c-1.972-0.686-5.381,4.363-6.3,2.831c-0.919-1.532-2.145-4.596-7.047-4.902s-5.821,4.902-8.579,2.145
			c-2.758-2.758-6.741-14.094-17.158-12.256c-10.417,1.838-15.626,11.643-15.626,11.643
			C564.071,283.54,560.701,279.864,555.492,281.089z"/>
		<path style="opacity:0.24;" d="M399.062,70.452c-7.823,1.84-6.902,9.663-6.902,9.663h120.097l-10.628-1.794
			c0,0-1.336-3.267-4.298-4.298c-2.962-1.031-8.081,6.553-9.462,4.252c-1.381-2.301-3.221-6.902-10.583-7.362
			s-8.743,7.362-12.884,3.221s-10.123-21.167-25.768-18.406c-15.645,2.761-23.467,17.485-23.467,17.485
			C411.946,74.133,406.885,68.612,399.062,70.452z"/>
		<path style="opacity:0.24;" d="M572.311,236.725c0,0-11.314-21.296-33.941-25.289c-22.627-3.993-31.279,20.631-37.268,26.62
			c-5.99,5.99-7.986-5.324-18.634-4.658c-10.648,0.665-13.31,7.321-15.307,10.648c-1.997,3.328-9.401-7.641-13.685-6.149
			c-4.284,1.491-6.217,6.216-6.217,6.216l-15.371,2.595h173.698c0,0,1.331-11.314-9.983-13.976
			C584.29,230.07,576.969,238.056,572.311,236.725z"/>
		<path style="opacity:0.24;" d="M472.827,146.344c-4.755-2.824-8.684-8.7-12.768-11.829c-10.664-8.169-23.641-12.995-37.157-12.719
			c-31.555,0.644-44.434,34.774-48.298,36.062c-3.864,1.288-12.235-12.236-26.403-9.66c-14.167,2.576-16.743,14.167-21.251,17.387
			c-4.508,3.22-16.743-5.796-24.471-3.22c-7.728,2.576-6.44,10.948-14.167,11.592c-7.728,0.644-12.235-3.22-18.031-1.932
			c-5.796,1.288-9.659,7.084-9.659,7.084h464.945c0,0-7.728-17.387-28.338-27.048c-11.359-5.323-24.825-3.431-36.689-1.148
			c-7.937,1.528-25.629,9.546-33.11,5.465c-9.111-4.971-10.06-33.369-13.744-42.802c-6.468-16.561-18.484-29.033-36.232-32.995
			c-27.247-6.082-49.23,4.934-65.264,26.736c-8.151,11.083-17.042,39.585-33.513,40.605
			C476.571,148.054,474.639,147.421,472.827,146.344z"/>
		<path style="opacity:0.24;" d="M247.098,91.64c-2.64-1.691-4.439-4.392-6.12-7.038c-8.379-13.189-16.721-27.853-31.031-34.127
			c-15.238-6.681-34.92-0.7-43.863,13.33c-5.727,8.984-7.074,19.956-9.527,30.325c-0.43,1.816-1.052,3.828-2.702,4.697
			c-1.228,0.647-2.71,0.477-4.079,0.253c-13.691-2.241-27.835-8.193-40.901-3.529c-8.566,3.058-15.023,10.295-19.656,18.122
			c42.911,0.003,85.822,0.015,128.732,0.007c58.694-0.011,117.389-0.001,176.083-0.001c0,0-2.533-3.799-6.332-4.644
			c-3.799-0.844-6.754,1.689-11.82,1.266c-5.066-0.422-4.221-5.91-9.287-7.599c-5.066-1.689-13.087,4.222-16.042,2.111
			c-2.955-2.111-4.644-9.71-13.931-11.398c-9.287-1.689-14.775,7.177-17.308,6.332c-2.533-0.844-10.976-23.218-31.661-23.64
			c-9.021-0.184-17.664,3.1-24.723,8.621c-2.769,2.166-5.208,5.563-8.095,7.266C252.63,93.292,250.168,93.606,247.098,91.64z"/>
		<path style="fill:#FFFFFF;" d="M575.014,284.71c-8.24,1.301-5.204,1.301-13.445,1.301c-4.289,0-7.749-0.351-10.516-0.567
			c-0.26,1.157-0.157,2.079-0.157,2.079h46.517C591.22,286.075,580.782,283.799,575.014,284.71z"/>
		<path style="fill:#FFFFFF;" d="M392.16,80.115h96.858c-1.071-1.283-3.831-2.715-14.024-2.323
			c-17.676,0.68-10.592-3.659-22.435-4.759c-11.843-1.1-17.676,3.399-31.273,3.399C407.69,76.433,392.16,80.115,392.16,80.115z"/>
		<path style="fill:#FFFFFF;" d="M115.483,176.298c-3.903-0.867,0,0-5.638,0s-13.879-3.47-23.42-4.771
			c-9.542-1.301-8.24,4.337-15.613,4.771c-7.373,0.434-19.516,1.735-28.191,0.434c-8.674-1.301-13.321,1.633-13.321,1.633h93.455
			C119.481,177.376,116.692,176.567,115.483,176.298z"/>
		<path style="fill:#FFFFFF;" d="M581.519,245.243c-12.144,0-16.914-3.036-25.155-6.072c-8.24-3.036-27.323-0.867-32.528,2.169
			c-5.204,3.036-17.782,3.903-28.191,2.602c-10.409-1.301-10.409-2.602-20.818,0.434c-3.662,1.068-8.182,1.813-12.504,2.331h136.609
			C593.941,245.926,587.734,245.243,581.519,245.243z"/>
		<path style="fill:#FFFFFF;" d="M655.095,170.232c-40.606,4.568-23.349,5.076-43.652,0.507
			c-20.303-4.568-12.182-9.136-26.394-9.136c-14.212,0-20.303,5.583-17.258,9.644c3.045,4.061-21.826,0.507-26.394-2.03
			c-4.568-2.538,22.841-7.106,17.765-12.689c-5.076-5.583-48.728,2.03-48.728,7.614c0,5.583-6.598,10.152-41.114,7.614
			c-34.516-2.538-38.069-1.523-27.917-5.583c10.152-4.061,8.121-11.167-21.826-11.167c-29.947,0-30.963,7.106-22.334,8.629
			c8.629,1.523,16.243,7.614-12.69,7.614c-28.932,0-30.455-0.508-63.448,4.061c-20.569,2.848-38.997,3.622-49.961,3.802h441.629
			C712.056,175.181,690.87,166.208,655.095,170.232z"/>
		<path style="fill:#FFFFFF;" d="M394.033,113.677c-4.462-0.428-26.31-1.77-47.741-5.616c-21.431-3.846-13.738,2.198-29.124,2.748
			c-15.386,0.549-34.069-1.099-22.53-2.198c11.54-1.099,0-2.748-29.673-4.946s-34.619,0.549-30.223,2.198
			c4.396,1.648,12.639,2.748-3.297,4.946c-15.936,2.198-38.465-3.297-60.445-6.594c-21.98-3.297-23.079,0-17.584,2.198
			c5.495,2.198,2.198,4.396-13.188,2.198c-15.386-2.198-14.287-0.55-31.871,1.648c-17.584,2.198-19.141,3.413-19.141,3.413
			c42.911,0.003,85.822,0.015,128.732,0.007C276.644,113.667,335.339,113.677,394.033,113.677z"/>
		<path style="fill:none;" d="M52.307,171.463c0,0,7.822-14.725,23.467-17.485c15.645-2.761,21.627,14.264,25.768,18.406
			c4.141,4.141,5.522-3.681,12.884-3.221c7.362,0.46,9.203,5.062,10.583,7.362c1.381,2.301,6.5-5.283,9.462-4.252
			c2.962,1.031,4.298,4.298,4.298,4.298l10.627,1.794H29.3c0,0-0.92-7.822,6.902-9.663
			C44.025,166.861,49.086,172.383,52.307,171.463z"/>
		<path style="fill:none;" d="M566.216,282.928c0,0,5.209-9.805,15.626-11.643c10.417-1.838,14.401,9.498,17.158,12.256
			c2.758,2.758,3.677-2.451,8.579-2.145s6.128,3.37,7.047,4.902c0.919,1.532,4.328-3.518,6.3-2.831
			c1.972,0.686,2.862,2.862,2.862,2.862l7.076,1.195h-79.969c0,0-0.613-5.209,4.596-6.434
			C560.701,279.864,564.071,283.54,566.216,282.928z"/>
		<path style="fill:none;" d="M415.167,73.213c0,0,7.823-14.724,23.467-17.485c15.645-2.761,21.627,14.264,25.768,18.406
			s5.522-3.681,12.884-3.221s9.203,5.062,10.583,7.362c1.38,2.301,6.5-5.283,9.462-4.252c2.962,1.031,4.298,4.298,4.298,4.298
			l10.628,1.794H392.16c0,0-0.92-7.823,6.902-9.663C406.885,68.612,411.946,74.133,415.167,73.213z"/>
		<path style="fill:none;" d="M572.311,236.725c0,0-11.314-21.296-33.941-25.289c-22.627-3.993-31.279,20.631-37.268,26.62
			c-5.99,5.99-7.986-5.324-18.634-4.658c-10.648,0.665-13.31,7.321-15.307,10.648c-1.997,3.328-9.401-7.641-13.685-6.149
			c-4.284,1.491-6.217,6.216-6.217,6.216l-15.371,2.595h173.698c0,0,1.331-11.314-9.983-13.976
			C584.29,230.07,576.969,238.056,572.311,236.725z"/>
		<path style="fill:none;" d="M472.827,146.344c-4.755-2.824-8.684-8.7-12.768-11.829c-10.664-8.169-23.641-12.995-37.157-12.719
			c-31.555,0.644-44.434,34.774-48.298,36.062c-3.864,1.288-12.235-12.236-26.403-9.66c-14.167,2.576-16.743,14.167-21.251,17.387
			c-4.508,3.22-16.743-5.796-24.471-3.22c-7.728,2.576-6.44,10.948-14.167,11.592c-7.728,0.644-12.235-3.22-18.031-1.932
			c-5.796,1.288-9.659,7.084-9.659,7.084h464.945c0,0-7.728-17.387-28.338-27.048c-11.359-5.323-24.825-3.431-36.689-1.148
			c-7.937,1.528-25.629,9.546-33.11,5.465c-9.111-4.971-10.06-33.369-13.744-42.802c-6.468-16.561-18.484-29.033-36.232-32.995
			c-27.247-6.082-49.23,4.934-65.264,26.736c-8.151,11.083-17.042,39.585-33.513,40.605
			C476.571,148.054,474.639,147.421,472.827,146.344z"/>
		<path style="fill:none;" d="M254.832,91.993c2.888-1.703,5.326-5.1,8.095-7.266c7.059-5.522,15.702-8.805,24.723-8.621
			c20.685,0.422,29.129,22.796,31.661,23.64c2.533,0.844,8.021-8.021,17.308-6.332c9.287,1.689,10.976,9.287,13.931,11.398
			c2.955,2.111,10.976-3.799,16.042-2.111c5.066,1.689,4.222,7.177,9.287,7.599c5.066,0.422,8.021-2.111,11.82-1.266
			c3.799,0.844,6.332,4.644,6.332,4.644c-58.694,0-117.389-0.011-176.083,0.001c-42.911,0.008-85.822-0.004-128.732-0.007
			c4.633-7.827,11.09-15.064,19.656-18.122c13.066-4.664,27.209,1.288,40.901,3.529c1.369,0.224,2.851,0.394,4.079-0.253
			c1.651-0.869,2.273-2.881,2.702-4.697c2.453-10.368,3.8-21.34,9.527-30.325c8.943-14.03,28.626-20.011,43.863-13.33
			c14.31,6.275,22.652,20.939,31.031,34.127c1.681,2.646,3.48,5.347,6.12,7.038C250.168,93.606,252.63,93.292,254.832,91.993z"/>
	</g>
</g>
<g id="Mountains">
	<g>
		<path style="opacity:0.3;" d="M367.335,399.609c-33.46-0.929-98.585-15.267-163.59-31.801l-0.27,0.039l22.176,10.153
			l47.879,16.444l-9.554,3.412c0,0,59.37,19.108,68.924,19.79c9.554,0.682,53.279,4.221,53.279,4.221L360,428.341l34.446,6.654
			c34.266-0.728,68.44-2.597,102.269-7.398c60.92-8.646,121.4-27.455,168.731-62.707c6.69-4.983,13.061-10.319,19.085-15.956
			C592.842,368.112,425.165,401.215,367.335,399.609z"/>
		<path style="fill:none;stroke:#263238;stroke-miterlimit:10;" d="M21.936,317.192c31.267,9.394,269.596,80.311,345.399,82.417
			c76.133,2.115,342.656-55.928,375.53-63.16"/>
		<g>
			<path style="fill:#92E3A9;" d="M367.335,399.609c76.135,2.115,342.664-55.93,375.53-63.16l-4.935-5.246l-106.743-81.185
				l-169.887,10.524l-15.034-11.276l-33.075,8.269l-130.798-75.923L51.066,325.814C124.874,347.395,303.582,397.838,367.335,399.609
				z"/>
			<path style="fill:none;stroke:#263238;stroke-miterlimit:10;" d="M367.335,399.609c76.135,2.115,342.664-55.93,375.53-63.16
				l-4.935-5.246l-106.743-81.185l-169.887,10.524l-15.034-11.276l-33.075,8.269l-130.798-75.923L51.066,325.814
				C124.874,347.395,303.582,397.838,367.335,399.609z"/>
			<path style="opacity:0.53;" d="M586.013,368.736c0.84-0.161,1.679-0.322,2.517-0.484c0.906-0.174,1.811-0.349,2.714-0.523
				c0.618-0.119,1.234-0.239,1.851-0.358c0.739-0.143,1.478-0.286,2.215-0.429c0.612-0.119,1.223-0.237,1.834-0.356
				c0.727-0.141,1.452-0.282,2.176-0.423c0.646-0.126,1.292-0.251,1.936-0.377c0.698-0.136,1.394-0.272,2.09-0.408
				c0.879-0.172,1.756-0.343,2.632-0.515c0.957-0.188,1.914-0.375,2.867-0.562c0.612-0.12,1.221-0.24,1.831-0.36
				c0.683-0.135,1.366-0.269,2.047-0.403c0.657-0.13,1.312-0.259,1.967-0.388c0.676-0.134,1.351-0.267,2.025-0.4
				c0.389-0.077,0.782-0.155,1.17-0.232l-0.001,0c61.01-12.09,111.796-23.167,124.98-26.068l-4.935-5.246l-106.743-81.185
				l-45.103,26.31l36.834-1.503l-10.524,18.793c0,0-33.076,15.034-36.834,17.289c-3.759,2.255-5.262,14.283-5.262,14.283
				l7.517,3.759l1.16,19.62l-27.47-9.848l-69.909-78.93l-20.296,0.752l-15.034-11.276l-33.075,8.269l-130.798-75.923l-10.524,16.538
				l-21.8,9.772l-33.827,26.31l26.31,39.089l-44.351-10.524l-13.531,5.262l-31.572,21.048l-21.048,9.772l-35.341,25.756
				l27.596,21.316l11.712,3.927c82.536,22.603,185.987,48.471,231.32,49.73c39.48,1.097,130.154-13.984,212.897-29.767v0
				c0.471-0.09,0.94-0.18,1.41-0.27c0.583-0.111,1.165-0.223,1.747-0.334C584.266,369.071,585.139,368.904,586.013,368.736z"/>
			<path style="opacity:0.53;" d="M617.12,323.764c-6.069,3.035-41.725,31.104-41.725,31.104l-34.897,5.31
				c0,0-96.347-31.104-99.381-31.863c-3.034-0.759-53.104,6.069-55.38,4.552c-2.276-1.517-72.07-26.552-83.45-25.794
				c-11.154,0.744-95.364,58.408-98.698,60.693c65.057,16.551,130.259,30.91,163.746,31.841
				c39.48,1.097,130.154-13.984,212.897-29.767v0c0.471-0.09,0.94-0.18,1.41-0.27c0.583-0.111,1.165-0.223,1.747-0.334
				c0.876-0.168,1.75-0.335,2.624-0.503c0.84-0.161,1.679-0.322,2.517-0.484c0.906-0.174,1.811-0.349,2.714-0.523
				c0.618-0.119,1.234-0.239,1.851-0.358c0.739-0.143,1.478-0.286,2.215-0.429c0.612-0.119,1.223-0.237,1.834-0.356
				c0.727-0.141,1.452-0.282,2.176-0.423c0.646-0.126,1.292-0.251,1.936-0.377c0.698-0.136,1.394-0.272,2.09-0.408
				c0.879-0.172,1.756-0.343,2.632-0.515c0.957-0.188,1.914-0.375,2.867-0.562c0.612-0.12,1.221-0.24,1.831-0.36
				c0.683-0.135,1.366-0.269,2.047-0.403c0.657-0.13,1.312-0.259,1.967-0.388c0.676-0.134,1.351-0.267,2.025-0.4
				c0.389-0.077,0.782-0.155,1.17-0.232l-0.001,0c36.509-7.235,69.346-14.105,92.666-19.079
				C678.668,335.45,621.479,321.585,617.12,323.764z"/>
		</g>
	</g>
</g>
<g id="Trees">
	<path style="fill:#BDBDBD;stroke:#263238;stroke-miterlimit:10;" d="M632.429,272.836"/>
	<g>
		<path style="fill:#92E3A9;" d="M204.307,351.404c0,13.058-6.631,23.644-14.81,23.644c-8.179,0-14.81-10.586-14.81-23.644
			s6.631-45.752,14.81-45.752C197.676,305.652,204.307,338.346,204.307,351.404z"/>
		<path style="opacity:0.29;" d="M202.923,352.716c0,11.403-5.79,20.647-12.933,20.647c-7.143,0-12.933-9.244-12.933-20.647
			c0-11.403,5.79-39.953,12.933-39.953C197.133,312.763,202.923,341.314,202.923,352.716z"/>
		<polygon style="fill:#263238;" points="195.849,353.223 190.059,357.624 189.517,343.188 192.888,336.447 189.497,340.349 
			189.437,341.031 189.177,334.12 188.895,349.195 183.02,342.615 188.835,352.384 188.587,365.623 184.007,362.351 
			188.546,367.799 188.167,387.983 191.197,387.983 190.135,359.651 		"/>
	</g>
	<g>
		<path style="fill:#92E3A9;" d="M301.353,383.538c0,13.058-6.63,23.644-14.81,23.644s-14.81-10.586-14.81-23.644
			s6.631-45.752,14.81-45.752S301.353,370.48,301.353,383.538z"/>
		<path style="opacity:0.29;" d="M299.969,384.851c0,11.403-5.79,20.647-12.933,20.647c-7.142,0-12.933-9.244-12.933-20.647
			c0-11.403,5.79-39.953,12.933-39.953C294.179,344.898,299.969,373.448,299.969,384.851z"/>
		<polygon style="fill:#263238;" points="292.895,385.358 287.105,389.758 286.564,375.323 289.935,368.582 286.543,372.484 
			286.483,373.166 286.224,366.254 285.941,381.329 280.066,374.749 285.881,384.519 285.633,397.758 281.053,394.486 
			285.592,399.933 285.214,420.118 288.244,420.118 287.181,391.786 		"/>
	</g>
	<g>
		<path style="fill:#92E3A9;" d="M267.43,371.917c0,9.621-4.886,17.421-10.912,17.421c-6.027,0-10.912-7.8-10.912-17.421
			s4.885-33.711,10.912-33.711C262.545,338.206,267.43,362.295,267.43,371.917z"/>
		<path style="opacity:0.29;" d="M266.411,372.884c0,8.402-4.266,15.213-9.529,15.213c-5.263,0-9.529-6.811-9.529-15.213
			c0-8.402,4.266-29.439,9.529-29.439C262.144,343.445,266.411,364.482,266.411,372.884z"/>
		<polygon style="fill:#263238;" points="261.198,373.258 256.932,376.5 256.533,365.863 259.017,360.896 256.518,363.772 
			256.474,364.274 256.283,359.181 256.074,370.289 251.745,365.441 256.03,372.639 255.847,382.394 252.473,379.983 
			255.817,383.997 255.538,398.87 257.771,398.87 256.988,377.994 		"/>
	</g>
	<g>
		<path style="fill:#92E3A9;" d="M151.787,329.865c0,9.621-4.886,17.421-10.912,17.421s-10.912-7.8-10.912-17.421
			s4.886-33.711,10.912-33.711S151.787,320.243,151.787,329.865z"/>
		<path style="opacity:0.29;" d="M150.768,330.832c0,8.402-4.266,15.213-9.529,15.213s-9.529-6.811-9.529-15.213
			c0-8.402,4.266-29.439,9.529-29.439S150.768,322.43,150.768,330.832z"/>
		<polygon style="fill:#263238;" points="145.555,331.206 141.289,334.448 140.89,323.811 143.374,318.844 140.875,321.72 
			140.831,322.222 140.64,317.129 140.431,328.237 136.102,323.389 140.387,330.587 140.204,340.342 136.83,337.931 
			140.174,341.945 139.895,356.818 142.128,356.818 141.345,335.942 		"/>
	</g>
	<g>
		<path style="fill:#92E3A9;" d="M626.484,343.28c0,9.621-4.885,17.421-10.912,17.421c-6.027,0-10.912-7.8-10.912-17.421
			s4.885-33.711,10.912-33.711C621.599,309.569,626.484,333.659,626.484,343.28z"/>
		<path style="opacity:0.29;" d="M625.465,344.248c0,8.402-4.266,15.213-9.529,15.213c-5.263,0-9.529-6.811-9.529-15.213
			c0-8.402,4.266-29.439,9.529-29.439C621.198,314.809,625.465,335.845,625.465,344.248z"/>
		<polygon style="fill:#263238;" points="620.252,344.621 615.986,347.863 615.587,337.227 618.071,332.26 615.572,335.135 
			615.527,335.638 615.336,330.545 615.128,341.653 610.799,336.804 615.084,344.003 614.901,353.757 611.526,351.347 
			614.871,355.361 614.592,370.233 616.825,370.233 616.042,349.357 		"/>
	</g>
	<g>
		<path style="fill:#92E3A9;" d="M660.497,341.395c0,5.717-2.903,10.351-6.484,10.351c-3.581,0-6.484-4.634-6.484-10.351
			c0-5.717,2.903-20.03,6.484-20.03C657.594,321.365,660.497,335.679,660.497,341.395z"/>
		<path style="opacity:0.29;" d="M659.891,341.97c0,4.992-2.535,9.039-5.662,9.039c-3.127,0-5.662-4.047-5.662-9.039
			c0-4.992,2.535-17.492,5.662-17.492C657.356,324.478,659.891,336.978,659.891,341.97z"/>
		<polygon style="fill:#263238;" points="656.794,342.192 654.259,344.118 654.022,337.799 655.498,334.847 654.013,336.556 
			653.987,336.854 653.873,333.828 653.75,340.428 651.178,337.548 653.724,341.825 653.615,347.621 651.61,346.188 
			653.597,348.573 653.431,357.41 654.758,357.41 654.293,345.006 		"/>
	</g>
	<g>
		<path style="fill:#92E3A9;" d="M685.565,336.973c0,5.717-2.903,10.351-6.484,10.351c-3.581,0-6.484-4.634-6.484-10.351
			c0-5.717,2.903-20.03,6.484-20.03C682.662,316.942,685.565,331.256,685.565,336.973z"/>
		<path style="opacity:0.29;" d="M684.959,337.547c0,4.992-2.535,9.039-5.662,9.039c-3.127,0-5.662-4.047-5.662-9.039
			c0-4.992,2.535-17.492,5.662-17.492C682.425,320.056,684.959,332.555,684.959,337.547z"/>
		<polygon style="fill:#263238;" points="681.862,337.769 679.328,339.696 679.091,333.376 680.566,330.425 679.081,332.133 
			679.055,332.432 678.942,329.406 678.818,336.006 676.246,333.125 678.792,337.402 678.683,343.198 676.678,341.766 
			678.665,344.151 678.5,352.987 679.826,352.987 679.361,340.583 		"/>
	</g>
	<g>
		<path style="fill:#92E3A9;" d="M711.868,331.559c0,5.717-2.903,10.351-6.484,10.351c-3.581,0-6.484-4.634-6.484-10.351
			c0-5.717,2.903-20.03,6.484-20.03C708.966,311.529,711.868,325.842,711.868,331.559z"/>
		<path style="opacity:0.29;" d="M711.263,332.134c0,4.992-2.535,9.039-5.662,9.039c-3.127,0-5.662-4.047-5.662-9.039
			c0-4.992,2.535-17.492,5.662-17.492C708.728,314.642,711.263,327.142,711.263,332.134z"/>
		<polygon style="fill:#263238;" points="708.165,332.356 705.631,334.282 705.394,327.962 706.869,325.011 705.385,326.72 
			705.358,327.018 705.245,323.992 705.121,330.592 702.549,327.711 705.095,331.988 704.986,337.784 702.981,336.352 
			704.968,338.737 704.803,347.574 706.129,347.574 705.664,335.17 		"/>
	</g>
	<g>
		<path style="fill:#92E3A9;" d="M231.39,361.984c0,5.717-2.903,10.351-6.484,10.351c-3.581,0-6.484-4.634-6.484-10.351
			c0-5.717,2.903-20.03,6.484-20.03C228.487,341.953,231.39,356.267,231.39,361.984z"/>
		<path style="opacity:0.29;" d="M230.784,362.559c0,4.992-2.535,9.039-5.662,9.039s-5.662-4.047-5.662-9.039
			c0-4.992,2.535-17.492,5.662-17.492S230.784,357.566,230.784,362.559z"/>
		<polygon style="fill:#263238;" points="227.687,362.78 225.152,364.707 224.915,358.387 226.391,355.436 224.906,357.144 
			224.879,357.443 224.766,354.417 224.642,361.017 222.07,358.136 224.616,362.413 224.507,368.209 222.502,366.777 
			224.49,369.162 224.324,377.999 225.65,377.999 225.185,365.595 		"/>
	</g>
</g>
<g id="Plants">
	<g>
		<g>
			<path style="fill:#263238;" d="M248.956,437.134c1.812,0.791,6.243,0.691,6.247,0.691c0.046-0.001-0.952-2.901-1.036-3.077
				c-0.972-2.034-4.047-5.393-6.549-5.055c-1.802,0.244-2.805,2.048-2.398,3.745C245.634,435.172,247.412,436.46,248.956,437.134z"
				/>
			<path style="fill:#263238;" d="M250.485,449.971c1.879,0.274,5.834-0.873,6.149-0.966c0.625,2.214,1.445,4.435,2.399,6.637
				c0.544,1.26,1.131,2.511,1.735,3.759c-0.361-0.528-0.687-0.998-0.74-1.059c-1.475-1.705-5.328-4.132-7.651-3.145
				c-1.675,0.711-2.165,2.715-1.324,4.245c0.858,1.562,2.914,2.335,4.58,2.577c1.691,0.247,5.082-0.664,5.977-0.917
				c0.237,0.476,0.468,0.954,0.707,1.429c1.145,2.281,2.298,4.551,3.36,6.813c0.375,0.797,0.714,1.595,1.058,2.393
				c-0.321-0.469-0.595-0.861-0.643-0.917c-1.475-1.705-5.327-4.132-7.651-3.145c-1.674,0.711-2.165,2.715-1.324,4.245
				c0.859,1.562,2.914,2.335,4.58,2.577c1.614,0.235,4.751-0.577,5.815-0.872c0.327,0.828,0.655,1.656,0.934,2.472
				c0.178,0.562,0.389,1.091,0.535,1.665c0.158,0.566,0.314,1.125,0.469,1.68c0.259,1.078,0.533,2.19,0.758,3.249
				c0.163,0.735,0.304,1.439,0.449,2.147c-0.364-0.798-1.109-2.344-1.186-2.466c-1.199-1.909-4.64-4.891-7.087-4.268
				c-1.763,0.449-2.551,2.356-1.951,3.995c0.612,1.674,2.526,2.749,4.136,3.241c1.773,0.542,5.698,0.047,6.189-0.018
				c0.235,1.173,0.453,2.316,0.641,3.398c0.141,0.801,0.27,1.57,0.388,2.31h1.572c-0.148-0.823-0.311-1.684-0.49-2.585
				c-0.234-1.192-0.508-2.461-0.801-3.761c0.295-0.117,1.969-0.794,3.453-1.623c1.292,1.399,4.603,3.037,5.032,3.245
				c-0.45,1.108-0.9,2.182-1.34,3.188c-0.232,0.533-0.457,1.036-0.681,1.536h1.662c0.132-0.316,0.263-0.625,0.397-0.954
				c0.462-1.123,0.934-2.333,1.407-3.579c0.475,0.099,4.361,0.888,6.172,0.48c1.642-0.371,3.632-1.301,4.367-2.924
				c0.72-1.589,0.076-3.55-1.649-4.129c-2.393-0.804-6.046,1.914-7.385,3.728c-0.079,0.107-0.806,1.364-1.252,2.164
				c0.19-0.51,0.381-1.004,0.57-1.532c0.382-1.041,0.733-2.091,1.114-3.22c0.165-0.551,0.332-1.108,0.5-1.671
				c0.178-0.555,0.297-1.163,0.45-1.749c0.326-1.367,0.589-2.767,0.823-4.184c0.912,0.332,4.17,1.465,5.857,1.346
				c1.68-0.118,3.786-0.735,4.759-2.229c0.952-1.462,0.613-3.498-1.004-4.332c-2.244-1.157-6.267,0.977-7.865,2.567
				c-0.1,0.099-1.118,1.369-1.664,2.077c0.134-0.853,0.272-1.703,0.379-2.57c0.311-2.503,0.547-5.047,0.795-7.583
				c0.075-0.777,0.16-1.55,0.241-2.325c0.324,0.122,4.166,1.552,6.056,1.42c1.68-0.118,3.787-0.735,4.759-2.229
				c0.952-1.462,0.613-3.498-1.004-4.331c-2.244-1.157-6.266,0.976-7.864,2.566c-0.12,0.12-1.583,1.949-1.932,2.433
				c0.18-1.706,0.376-3.404,0.636-5.07c0.356-2.299,0.833-4.535,1.455-6.668c0.15,0.057,4.154,1.568,6.09,1.432
				c1.68-0.118,3.787-0.735,4.76-2.229c0.952-1.462,0.613-3.497-1.004-4.332c-2.244-1.157-6.266,0.976-7.865,2.566
				c-0.125,0.125-1.698,2.094-1.958,2.472c0.038-0.127,0.062-0.262,0.101-0.388c0.693-2.268,1.649-4.378,2.641-6.309
				c0.574-1.124,1.186-2.165,1.804-3.166c0.717,0.358,4.011,1.957,5.767,2.028c1.683,0.067,3.845-0.315,4.975-1.693
				c1.107-1.349,0.993-3.409-0.522-4.416c-2.104-1.397-6.336,0.282-8.099,1.687c-0.096,0.076-0.984,0.961-1.622,1.615
				c0.285-0.447,0.572-0.914,0.854-1.337c1.056-1.591,2.121-2.982,3.075-4.207c0.548-0.692,1.056-1.307,1.539-1.877
				c0.886-0.016,4.459-0.124,6.021-0.857c1.524-0.716,3.267-2.051,3.636-3.795c0.361-1.708-0.69-3.484-2.498-3.678
				c-2.51-0.271-5.493,3.169-6.41,5.229c-0.079,0.178-0.999,3.104-0.953,3.104c0,0,0.043,0,0.054-0.001
				c-0.476,0.539-0.978,1.123-1.515,1.772c-0.982,1.206-2.08,2.578-3.175,4.152c-1.098,1.57-2.247,3.307-3.292,5.245
				c-1.05,1.942-2.055,4.038-2.812,6.331c-0.009,0.026-0.014,0.054-0.023,0.08c0.013-0.74-0.02-2.809-0.04-2.967
				c-0.29-2.236-2.164-6.386-4.647-6.845c-1.788-0.33-3.303,1.071-3.446,2.81c-0.145,1.776,1.142,3.554,2.399,4.676
				c1.416,1.265,5.348,2.49,5.661,2.587c-0.701,2.191-1.242,4.496-1.661,6.858c-0.241,1.351-0.442,2.719-0.626,4.093
				c-0.009-0.64-0.022-1.212-0.033-1.292c-0.29-2.236-2.164-6.385-4.647-6.845c-1.789-0.331-3.304,1.071-3.446,2.81
				c-0.146,1.776,1.142,3.554,2.398,4.676c1.275,1.138,4.605,2.25,5.49,2.533c-0.065,0.528-0.136,1.055-0.199,1.582
				c-0.303,2.534-0.594,5.064-0.956,7.536c-0.127,0.871-0.284,1.725-0.438,2.579c-0.009-0.568-0.021-1.047-0.031-1.119
				c-0.29-2.236-2.164-6.386-4.646-6.845c-1.789-0.33-3.304,1.071-3.447,2.81c-0.146,1.776,1.143,3.554,2.399,4.676
				c1.216,1.086,4.281,2.14,5.332,2.481c-0.184,0.871-0.367,1.742-0.585,2.578c-0.162,0.567-0.278,1.124-0.472,1.684
				c-0.18,0.558-0.359,1.112-0.536,1.659c-0.38,1.043-0.764,2.121-1.16,3.128c-0.27,0.703-0.54,1.368-0.81,2.038
				c0.136-0.866,0.368-2.567,0.372-2.711c0.034-1.497-0.497-3.932-1.556-5.644c0.007-0.221-0.006-0.442-0.041-0.661
				c-0.277-1.723-1.896-3.003-3.654-2.535c-2.44,0.65-3.987,4.932-4.102,7.183c-0.007,0.133,0.08,1.582,0.15,2.496
				c-0.123-0.531-0.236-1.047-0.369-1.592c-0.256-1.079-0.543-2.148-0.847-3.3c-0.166-0.551-0.335-1.107-0.505-1.669
				c-0.157-0.56-0.394-1.133-0.59-1.706c-0.483-1.319-1.036-2.633-1.622-3.944c0.945-0.227,4.286-1.078,5.628-2.108
				c1.336-1.025,2.753-2.702,2.74-4.484c-0.013-1.745-1.418-3.256-3.227-3.059c-2.51,0.272-4.689,4.271-5.144,6.479
				c-0.028,0.138-0.177,1.759-0.242,2.651c-0.359-0.785-0.713-1.571-1.102-2.353c-1.121-2.26-2.327-4.512-3.521-6.763
				c-0.366-0.69-0.722-1.381-1.081-2.072c0.337-0.077,4.331-1.004,5.835-2.157c1.336-1.025,2.753-2.702,2.74-4.484
				c-0.013-1.745-1.419-3.255-3.227-3.059c-2.51,0.272-4.688,4.271-5.144,6.479c-0.034,0.166-0.245,2.499-0.269,3.095
				c-0.791-1.522-1.564-3.046-2.266-4.579c-0.971-2.114-1.807-4.242-2.464-6.364c0.157-0.036,4.33-0.984,5.87-2.165
				c1.336-1.025,2.753-2.702,2.74-4.484c-0.012-1.745-1.418-3.255-3.227-3.059c-2.51,0.272-4.688,4.271-5.144,6.479
				c-0.036,0.173-0.261,2.684-0.269,3.141c-0.039-0.126-0.093-0.252-0.131-0.378c-0.673-2.275-1.039-4.562-1.277-6.72
				c-0.141-1.254-0.205-2.46-0.242-3.635c0.795-0.097,4.425-0.58,5.928-1.49c1.441-0.872,3.033-2.384,3.216-4.156
				c0.179-1.736-1.053-3.392-2.871-3.395c-2.525-0.005-5.129,3.731-5.825,5.875c-0.038,0.117-0.291,1.345-0.463,2.242
				c-0.008-0.531-0.027-1.078-0.025-1.586c0.004-1.909,0.124-3.658,0.244-5.205c0.075-0.88,0.16-1.673,0.248-2.415
				c0.73-0.503,3.65-2.564,4.548-4.037c0.877-1.438,1.594-3.513,0.939-5.171c-0.641-1.623-2.497-2.525-4.113-1.69
				c-2.243,1.159-2.833,5.675-2.462,7.898c0.033,0.192,0.88,3.14,0.918,3.115c0,0,0.036-0.025,0.044-0.03
				c-0.099,0.712-0.196,1.477-0.286,2.314c-0.154,1.548-0.313,3.298-0.358,5.215c-0.05,1.915-0.05,3.998,0.147,6.191
				c0.195,2.198,0.513,4.501,1.147,6.832c0.007,0.026,0.018,0.053,0.025,0.079c-0.397-0.624-1.566-2.332-1.671-2.453
				c-1.475-1.705-5.327-4.132-7.651-3.146c-1.674,0.711-2.165,2.716-1.324,4.245C246.764,448.956,248.819,449.728,250.485,449.971z"
				/>
			<path style="fill:#263238;" d="M293.78,438.109c0.039,0.025,0.806-2.945,0.833-3.138c0.311-2.233-0.401-6.73-2.675-7.829
				c-1.638-0.791-3.469,0.161-4.065,1.801c-0.61,1.674,0.163,3.73,1.078,5.143C290.026,435.746,293.778,438.107,293.78,438.109z"/>
		</g>
		<g>
			<path style="fill:#263238;" d="M350.264,431.198c1.121,0.49,3.863,0.428,3.865,0.428c0.028-0.001-0.589-1.795-0.641-1.904
				c-0.601-1.258-2.504-3.336-4.052-3.127c-1.115,0.151-1.735,1.267-1.483,2.317C348.21,429.985,349.31,430.781,350.264,431.198z"/>
			<path style="fill:#263238;" d="M351.211,439.14c1.163,0.169,3.609-0.54,3.804-0.597c0.386,1.37,0.894,2.744,1.484,4.106
				c0.336,0.779,0.7,1.553,1.074,2.325c-0.223-0.327-0.425-0.617-0.458-0.655c-0.913-1.055-3.296-2.556-4.734-1.946
				c-1.036,0.44-1.339,1.68-0.819,2.626c0.531,0.966,1.803,1.444,2.833,1.594c1.046,0.153,3.144-0.411,3.698-0.567
				c0.147,0.295,0.29,0.59,0.437,0.884c0.709,1.411,1.422,2.816,2.079,4.215c0.232,0.493,0.442,0.987,0.654,1.481
				c-0.198-0.29-0.368-0.533-0.398-0.568c-0.913-1.055-3.296-2.556-4.734-1.946c-1.036,0.44-1.339,1.68-0.819,2.626
				c0.531,0.966,1.803,1.444,2.834,1.594c0.998,0.146,2.94-0.357,3.598-0.539c0.202,0.512,0.405,1.024,0.578,1.53
				c0.11,0.348,0.241,0.675,0.331,1.03c0.098,0.35,0.194,0.696,0.29,1.039c0.16,0.667,0.33,1.355,0.469,2.01
				c0.101,0.455,0.188,0.89,0.278,1.328c-0.225-0.493-0.686-1.45-0.734-1.526c-0.742-1.181-2.87-3.026-4.384-2.641
				c-1.09,0.278-1.578,1.458-1.207,2.472c0.379,1.035,1.563,1.701,2.559,2.005c1.097,0.335,3.525,0.029,3.829-0.011
				c0.146,0.725,0.28,1.433,0.397,2.102c0.087,0.495,0.167,0.971,0.24,1.429h0.973c-0.092-0.509-0.192-1.042-0.303-1.599
				c-0.145-0.737-0.314-1.522-0.496-2.327c0.183-0.072,1.218-0.491,2.136-1.004c0.799,0.866,2.848,1.879,3.113,2.008
				c-0.279,0.686-0.557,1.35-0.829,1.972c-0.143,0.33-0.283,0.641-0.421,0.95h1.028c0.082-0.196,0.163-0.387,0.246-0.59
				c0.286-0.695,0.578-1.443,0.87-2.214c0.294,0.061,2.698,0.55,3.818,0.297c1.016-0.23,2.247-0.805,2.702-1.809
				c0.445-0.983,0.047-2.196-1.02-2.555c-1.48-0.497-3.741,1.184-4.569,2.307c-0.049,0.066-0.499,0.844-0.774,1.339
				c0.118-0.316,0.236-0.621,0.353-0.947c0.237-0.644,0.453-1.294,0.689-1.992c0.102-0.341,0.205-0.686,0.309-1.034
				c0.11-0.343,0.184-0.719,0.278-1.082c0.201-0.846,0.364-1.712,0.509-2.589c0.564,0.205,2.58,0.906,3.624,0.833
				c1.039-0.073,2.342-0.455,2.944-1.379c0.589-0.905,0.379-2.164-0.621-2.68c-1.388-0.716-3.877,0.604-4.866,1.588
				c-0.062,0.061-0.692,0.847-1.029,1.285c0.083-0.528,0.168-1.054,0.235-1.59c0.192-1.549,0.339-3.122,0.492-4.691
				c0.047-0.481,0.099-0.959,0.149-1.438c0.2,0.075,2.577,0.96,3.747,0.878c1.039-0.073,2.343-0.455,2.944-1.379
				c0.589-0.905,0.379-2.164-0.621-2.68c-1.388-0.716-3.877,0.604-4.865,1.588c-0.074,0.074-0.979,1.206-1.195,1.505
				c0.111-1.055,0.232-2.106,0.394-3.136c0.22-1.422,0.516-2.806,0.9-4.125c0.093,0.035,2.57,0.97,3.767,0.886
				c1.039-0.073,2.343-0.455,2.945-1.379c0.589-0.905,0.379-2.164-0.621-2.68c-1.388-0.716-3.877,0.604-4.866,1.588
				c-0.077,0.077-1.05,1.296-1.211,1.529c0.023-0.078,0.038-0.162,0.062-0.24c0.429-1.403,1.02-2.708,1.634-3.903
				c0.355-0.695,0.734-1.34,1.116-1.958c0.444,0.221,2.482,1.211,3.568,1.254c1.041,0.042,2.379-0.195,3.078-1.047
				c0.685-0.835,0.614-2.109-0.323-2.732c-1.301-0.864-3.92,0.174-5.011,1.044c-0.059,0.047-0.609,0.595-1.004,0.999
				c0.177-0.277,0.354-0.565,0.529-0.827c0.653-0.984,1.312-1.845,1.902-2.603c0.339-0.428,0.654-0.809,0.952-1.161
				c0.548-0.01,2.759-0.077,3.725-0.53c0.943-0.443,2.021-1.269,2.249-2.348c0.223-1.056-0.427-2.155-1.546-2.275
				c-1.553-0.168-3.399,1.961-3.966,3.235c-0.049,0.11-0.618,1.921-0.589,1.92c0,0,0.027,0,0.033,0
				c-0.294,0.334-0.605,0.695-0.937,1.097c-0.608,0.746-1.287,1.595-1.964,2.569c-0.68,0.971-1.39,2.046-2.037,3.245
				c-0.65,1.201-1.272,2.498-1.74,3.917c-0.005,0.016-0.009,0.033-0.014,0.049c0.008-0.458-0.012-1.738-0.025-1.836
				c-0.179-1.383-1.339-3.951-2.875-4.235c-1.106-0.204-2.044,0.662-2.132,1.739c-0.09,1.099,0.707,2.199,1.484,2.893
				c0.876,0.783,3.308,1.54,3.502,1.6c-0.434,1.355-0.768,2.781-1.027,4.243c-0.149,0.836-0.273,1.682-0.387,2.532
				c-0.006-0.396-0.014-0.75-0.021-0.799c-0.179-1.383-1.339-3.95-2.875-4.234c-1.107-0.205-2.044,0.663-2.132,1.738
				c-0.09,1.099,0.707,2.199,1.483,2.893c0.788,0.704,2.849,1.392,3.397,1.567c-0.04,0.327-0.084,0.652-0.123,0.979
				c-0.188,1.568-0.367,3.133-0.591,4.662c-0.078,0.539-0.176,1.067-0.271,1.596c-0.006-0.351-0.013-0.647-0.019-0.692
				c-0.179-1.383-1.339-3.951-2.874-4.235c-1.107-0.204-2.044,0.662-2.132,1.739c-0.09,1.099,0.707,2.199,1.484,2.893
				c0.752,0.672,2.649,1.324,3.298,1.535c-0.114,0.538-0.227,1.078-0.362,1.595c-0.1,0.351-0.172,0.695-0.292,1.042
				c-0.112,0.345-0.222,0.688-0.331,1.027c-0.235,0.645-0.473,1.312-0.717,1.935c-0.167,0.435-0.334,0.846-0.501,1.261
				c0.084-0.536,0.228-1.588,0.23-1.677c0.021-0.926-0.308-2.433-0.963-3.492c0.004-0.137-0.004-0.273-0.026-0.409
				c-0.171-1.066-1.173-1.858-2.26-1.568c-1.509,0.402-2.467,3.051-2.538,4.444c-0.004,0.082,0.049,0.979,0.093,1.544
				c-0.076-0.328-0.146-0.648-0.228-0.985c-0.158-0.667-0.336-1.329-0.524-2.042c-0.103-0.341-0.207-0.685-0.313-1.033
				c-0.097-0.347-0.243-0.701-0.365-1.056c-0.298-0.816-0.641-1.629-1.004-2.44c0.585-0.14,2.652-0.667,3.482-1.304
				c0.827-0.634,1.703-1.672,1.695-2.774c-0.008-1.08-0.878-2.014-1.996-1.893c-1.553,0.168-2.901,2.642-3.183,4.008
				c-0.017,0.085-0.109,1.088-0.15,1.64c-0.222-0.486-0.441-0.972-0.682-1.456c-0.694-1.398-1.44-2.791-2.178-4.184
				c-0.226-0.427-0.447-0.854-0.669-1.282c0.209-0.048,2.68-0.621,3.61-1.335c0.826-0.634,1.703-1.672,1.695-2.774
				c-0.008-1.079-0.878-2.014-1.996-1.892c-1.553,0.169-2.901,2.642-3.182,4.008c-0.021,0.103-0.151,1.546-0.167,1.915
				c-0.489-0.941-0.968-1.884-1.402-2.833c-0.601-1.308-1.118-2.625-1.525-3.937c0.097-0.022,2.679-0.609,3.631-1.34
				c0.827-0.634,1.703-1.672,1.695-2.774c-0.008-1.08-0.878-2.014-1.996-1.892c-1.553,0.168-2.9,2.642-3.182,4.008
				c-0.022,0.107-0.161,1.66-0.167,1.943c-0.024-0.078-0.058-0.156-0.081-0.234c-0.416-1.407-0.643-2.822-0.79-4.158
				c-0.087-0.775-0.127-1.522-0.149-2.249c0.492-0.06,2.738-0.359,3.668-0.922c0.891-0.54,1.877-1.475,1.99-2.571
				c0.111-1.074-0.651-2.098-1.776-2.1c-1.562-0.003-3.173,2.308-3.603,3.635c-0.023,0.072-0.18,0.832-0.286,1.387
				c-0.005-0.328-0.017-0.667-0.015-0.981c0.002-1.181,0.077-2.263,0.151-3.22c0.046-0.544,0.099-1.035,0.154-1.494
				c0.452-0.311,2.258-1.586,2.814-2.497c0.542-0.89,0.986-2.173,0.581-3.199c-0.397-1.004-1.545-1.562-2.544-1.046
				c-1.388,0.717-1.753,3.511-1.523,4.886c0.02,0.119,0.544,1.943,0.568,1.927c0,0,0.022-0.015,0.027-0.019
				c-0.061,0.44-0.121,0.914-0.177,1.432c-0.095,0.958-0.194,2.04-0.221,3.226c-0.031,1.185-0.031,2.473,0.091,3.83
				c0.121,1.36,0.317,2.785,0.709,4.227c0.005,0.016,0.011,0.033,0.016,0.049c-0.246-0.386-0.969-1.443-1.034-1.517
				c-0.912-1.055-3.296-2.556-4.734-1.946c-1.036,0.44-1.339,1.68-0.819,2.626C348.909,438.512,350.18,438.989,351.211,439.14z"/>
			<path style="fill:#263238;" d="M377.996,431.801c0.024,0.015,0.499-1.822,0.515-1.941c0.192-1.382-0.248-4.164-1.655-4.843
				c-1.013-0.49-2.146,0.099-2.515,1.114c-0.377,1.036,0.101,2.307,0.667,3.182C375.673,430.339,377.994,431.8,377.996,431.801z"/>
		</g>
		<g>
			<path style="fill:#263238;" d="M347.978,450.85c-1.222-0.053-3.657-1.314-3.659-1.315c-0.025-0.013,1.319-1.353,1.413-1.428
				c1.094-0.866,3.716-1.895,5.014-1.027c0.935,0.626,1.001,1.901,0.314,2.733C350.357,450.664,349.019,450.895,347.978,450.85z"/>
			<path style="fill:#263238;" d="M343.636,457.566c-1.119-0.359-3.004-2.072-3.154-2.209c-0.949,1.06-2.009,2.071-3.139,3.035
				c-0.645,0.552-1.312,1.088-1.987,1.616c0.344-0.195,0.653-0.368,0.699-0.387c1.284-0.546,4.085-0.846,5.107,0.334
				c0.737,0.85,0.464,2.098-0.419,2.719c-0.902,0.634-2.254,0.504-3.246,0.186c-1.007-0.323-2.643-1.751-3.072-2.135
				c-0.261,0.2-0.52,0.403-0.782,0.602c-1.257,0.956-2.515,1.904-3.721,2.871c-0.425,0.341-0.831,0.692-1.239,1.042
				c0.306-0.173,0.565-0.317,0.607-0.335c1.283-0.546,4.084-0.847,5.107,0.334c0.737,0.85,0.464,2.098-0.419,2.719
				c-0.902,0.634-2.254,0.504-3.246,0.186c-0.961-0.308-2.483-1.613-2.994-2.067c-0.407,0.371-0.814,0.742-1.192,1.12
				c-0.252,0.264-0.513,0.5-0.75,0.779c-0.242,0.271-0.481,0.54-0.718,0.806c-0.437,0.529-0.892,1.072-1.305,1.599
				c-0.29,0.364-0.561,0.717-0.834,1.071c0.419-0.344,1.254-1.001,1.33-1.048c1.186-0.734,3.909-1.455,5.099-0.443
				c0.857,0.729,0.776,2.003-0.003,2.751c-0.795,0.763-2.151,0.84-3.18,0.676c-1.133-0.181-3.179-1.524-3.434-1.694
				c-0.45,0.588-0.882,1.164-1.281,1.714c-0.296,0.406-0.577,0.799-0.844,1.178l-0.874-0.428c0.306-0.417,0.631-0.851,0.975-1.303
				c0.454-0.599,0.952-1.229,1.469-1.872c-0.132-0.145-0.878-0.977-1.477-1.841c-1.099,0.426-3.384,0.435-3.679,0.434
				c-0.051,0.738-0.094,1.457-0.123,2.136c-0.016,0.359-0.028,0.7-0.039,1.039l-0.924-0.452c0.013-0.212,0.024-0.419,0.039-0.638
				c0.049-0.75,0.116-1.551,0.192-2.371c-0.291-0.074-2.665-0.693-3.56-1.413c-0.811-0.653-1.664-1.711-1.631-2.813
				c0.032-1.079,0.924-1.993,2.04-1.845c1.548,0.204,2.839,2.708,3.089,4.081c0.015,0.081,0.077,0.977,0.107,1.543
				c0.033-0.335,0.062-0.661,0.1-1.006c0.071-0.682,0.162-1.361,0.257-2.092c0.058-0.351,0.117-0.706,0.177-1.064
				c0.052-0.357,0.151-0.727,0.226-1.094c0.191-0.848,0.426-1.698,0.681-2.549c-0.597-0.064-2.715-0.32-3.621-0.845
				c-0.901-0.523-1.904-1.439-2.038-2.533c-0.131-1.072,0.611-2.11,1.736-2.134c1.562-0.032,3.216,2.247,3.672,3.566
				c0.029,0.082,0.249,1.065,0.359,1.607c0.158-0.51,0.312-1.02,0.489-1.531c0.508-1.475,1.069-2.953,1.621-4.43
				c0.17-0.452,0.333-0.905,0.498-1.357c-0.213-0.02-2.737-0.271-3.751-0.859c-0.901-0.522-1.904-1.439-2.038-2.533
				c-0.132-1.072,0.611-2.11,1.736-2.133c1.562-0.033,3.216,2.247,3.671,3.565c0.034,0.099,0.349,1.514,0.412,1.878
				c0.364-0.997,0.717-1.993,1.026-2.99c0.428-1.374,0.771-2.747,1.005-4.101c-0.099-0.009-2.735-0.259-3.773-0.861
				c-0.901-0.523-1.904-1.439-2.038-2.533c-0.131-1.072,0.611-2.11,1.736-2.134c1.562-0.032,3.216,2.247,3.672,3.566
				c0.036,0.103,0.374,1.625,0.415,1.906c0.014-0.081,0.037-0.163,0.049-0.243c0.232-1.449,0.275-2.881,0.249-4.224
				c-0.013-0.781-0.07-1.526-0.141-2.25c-0.496,0.004-2.761-0.004-3.756-0.442c-0.953-0.421-2.051-1.221-2.304-2.294
				c-0.248-1.051,0.376-2.165,1.491-2.311c1.549-0.204,3.444,1.88,4.041,3.141c0.033,0.068,0.285,0.802,0.462,1.339
				c-0.037-0.326-0.069-0.664-0.111-0.975c-0.154-1.171-0.367-2.234-0.564-3.174c-0.116-0.533-0.231-1.014-0.344-1.462
				c-0.488-0.25-2.444-1.282-3.112-2.114c-0.652-0.812-1.257-2.028-0.988-3.098c0.264-1.047,1.331-1.748,2.389-1.364
				c1.468,0.533,2.19,3.256,2.139,4.65c-0.005,0.121-0.289,1.997-0.315,1.984c0,0-0.024-0.012-0.03-0.015
				c0.117,0.429,0.238,0.89,0.36,1.397c0.217,0.938,0.454,1.999,0.634,3.171c0.183,1.171,0.349,2.449,0.402,3.81
				c0.055,1.365,0.044,2.803-0.16,4.283c-0.002,0.017-0.007,0.034-0.009,0.051c0.194-0.415,0.775-1.555,0.83-1.638
				c0.769-1.163,2.939-2.96,4.444-2.539c1.084,0.303,1.544,1.494,1.15,2.499c-0.403,1.026-1.602,1.664-2.605,1.946
				c-1.131,0.318-3.649-0.071-3.849-0.103c-0.207,1.408-0.533,2.836-0.943,4.263c-0.234,0.816-0.494,1.631-0.766,2.444
				c0.179-0.353,0.342-0.667,0.37-0.709c0.77-1.164,2.939-2.959,4.444-2.539c1.084,0.303,1.544,1.494,1.15,2.499
				c-0.402,1.027-1.602,1.664-2.605,1.946c-1.018,0.286-3.171-0.002-3.74-0.086c-0.108,0.311-0.211,0.623-0.32,0.933
				c-0.521,1.49-1.048,2.975-1.519,4.447c-0.167,0.519-0.311,1.036-0.458,1.552c0.16-0.313,0.297-0.576,0.322-0.613
				c0.77-1.164,2.94-2.96,4.444-2.539c1.084,0.303,1.545,1.494,1.151,2.499c-0.402,1.026-1.602,1.664-2.605,1.945
				c-0.971,0.273-2.961,0.024-3.637-0.072c-0.135,0.534-0.27,1.068-0.376,1.591c-0.064,0.359-0.151,0.7-0.196,1.064
				c-0.052,0.359-0.103,0.716-0.154,1.068c-0.073,0.683-0.152,1.386-0.207,2.054c-0.041,0.464-0.072,0.907-0.104,1.353
				c0.16-0.518,0.494-1.526,0.531-1.607c0.388-0.841,1.346-2.049,2.4-2.712c0.057-0.125,0.124-0.244,0.203-0.356
				c0.623-0.882,1.87-1.153,2.72-0.414c1.179,1.025,0.873,3.825,0.325,5.107c-0.032,0.076-0.475,0.857-0.762,1.346
				c0.213-0.261,0.416-0.518,0.638-0.784c0.436-0.53,0.886-1.046,1.369-1.603c0.242-0.261,0.487-0.524,0.735-0.79
				c0.24-0.269,0.527-0.522,0.792-0.788c0.627-0.602,1.292-1.181,1.974-1.75c-0.463-0.383-2.088-1.765-2.554-2.703
				c-0.464-0.933-0.794-2.25-0.303-3.237c0.482-0.966,1.674-1.423,2.625-0.822c1.321,0.834,1.443,3.649,1.096,5
				c-0.022,0.084-0.38,1.025-0.587,1.539c0.413-0.339,0.823-0.679,1.253-1.008c1.238-0.95,2.52-1.874,3.796-2.8
				c0.391-0.284,0.777-0.571,1.164-0.857c-0.166-0.135-2.133-1.736-2.655-2.786c-0.463-0.933-0.794-2.25-0.302-3.237
				c0.482-0.966,1.674-1.423,2.625-0.822c1.321,0.834,1.443,3.649,1.096,5c-0.026,0.102-0.544,1.455-0.692,1.793
				c0.853-0.63,1.698-1.267,2.505-1.928c1.115-0.911,2.158-1.865,3.101-2.865c-0.078-0.063-2.138-1.725-2.672-2.8
				c-0.464-0.933-0.794-2.25-0.302-3.237c0.482-0.966,1.674-1.423,2.625-0.822c1.32,0.834,1.443,3.649,1.095,4.999
				c-0.027,0.106-0.585,1.562-0.705,1.818c0.056-0.059,0.12-0.115,0.175-0.175c0.993-1.081,1.819-2.252,2.538-3.386
				c0.419-0.658,0.783-1.311,1.123-1.954c-0.415-0.27-2.301-1.526-2.888-2.441c-0.563-0.877-1.037-2.15-0.656-3.184
				c0.373-1.013,1.508-1.598,2.519-1.105c1.404,0.684,1.835,3.468,1.638,4.849c-0.011,0.075-0.204,0.826-0.353,1.372
				c0.149-0.293,0.308-0.592,0.445-0.875c0.517-1.062,0.926-2.066,1.281-2.958c0.198-0.509,0.366-0.973,0.519-1.409
				c-0.269-0.478-1.331-2.418-1.429-3.48c-0.096-1.038,0.07-2.385,0.885-3.128c0.798-0.728,2.074-0.724,2.745,0.18
				c0.931,1.254,0.03,3.924-0.781,5.059c-0.07,0.098-1.343,1.505-1.357,1.481c0,0-0.013-0.023-0.016-0.029
				c-0.139,0.422-0.293,0.874-0.471,1.364c-0.336,0.902-0.723,1.917-1.22,2.995c-0.493,1.078-1.06,2.235-1.766,3.4
				c-0.707,1.168-1.509,2.362-2.496,3.484c-0.011,0.013-0.025,0.025-0.036,0.037c0.39-0.239,1.505-0.869,1.596-0.908
				c1.284-0.546,4.084-0.847,5.107,0.334c0.737,0.851,0.464,2.098-0.419,2.719C345.979,458.014,344.627,457.884,343.636,457.566z"/>
			<path style="fill:#263238;" d="M322.807,439.197c-0.028,0.003,0.354-1.856,0.391-1.97c0.435-1.325,2.054-3.63,3.616-3.622
				c1.125,0.006,1.884,1.033,1.769,2.107c-0.117,1.096-1.105,2.028-1.998,2.564C325.536,438.905,322.809,439.196,322.807,439.197z"
				/>
		</g>
		<g>
			<path style="fill:#263238;" d="M693.425,369.096c1.121,0.49,3.863,0.428,3.865,0.428c0.028-0.001-0.589-1.795-0.641-1.904
				c-0.601-1.258-2.504-3.336-4.052-3.127c-1.115,0.151-1.735,1.267-1.484,2.317C691.37,367.883,692.47,368.679,693.425,369.096z"/>
			<path style="fill:#263238;" d="M694.371,377.038c1.163,0.169,3.609-0.54,3.804-0.597c0.386,1.37,0.894,2.744,1.484,4.106
				c0.336,0.779,0.7,1.554,1.074,2.326c-0.223-0.327-0.425-0.618-0.458-0.655c-0.913-1.055-3.296-2.556-4.734-1.946
				c-1.036,0.44-1.339,1.68-0.819,2.626c0.531,0.966,1.803,1.444,2.833,1.594c1.046,0.153,3.144-0.411,3.698-0.567
				c0.147,0.295,0.29,0.59,0.437,0.884c0.709,1.411,1.422,2.816,2.079,4.215c0.232,0.493,0.442,0.987,0.654,1.481
				c-0.198-0.29-0.368-0.533-0.398-0.568c-0.913-1.055-3.296-2.556-4.734-1.946c-1.036,0.44-1.339,1.68-0.819,2.626
				c0.531,0.966,1.803,1.444,2.834,1.594c0.998,0.146,2.94-0.357,3.598-0.539c0.202,0.512,0.405,1.024,0.578,1.53
				c0.11,0.348,0.241,0.675,0.331,1.03c0.098,0.35,0.194,0.696,0.29,1.039c0.16,0.667,0.33,1.355,0.469,2.01
				c0.101,0.455,0.188,0.89,0.278,1.328c-0.225-0.493-0.686-1.45-0.734-1.526c-0.742-1.181-2.87-3.026-4.384-2.64
				c-1.09,0.278-1.578,1.458-1.207,2.472c0.379,1.035,1.563,1.701,2.559,2.005c1.097,0.335,3.525,0.029,3.829-0.011
				c0.146,0.726,0.28,1.433,0.397,2.102c0.087,0.495,0.167,0.971,0.24,1.429h0.973c-0.092-0.509-0.192-1.042-0.303-1.599
				c-0.145-0.737-0.314-1.522-0.496-2.327c0.183-0.073,1.218-0.492,2.136-1.004c0.799,0.866,2.848,1.879,3.113,2.008
				c-0.279,0.686-0.557,1.35-0.829,1.972c-0.143,0.33-0.283,0.641-0.421,0.95h1.028c0.082-0.196,0.163-0.387,0.246-0.59
				c0.286-0.695,0.578-1.443,0.87-2.214c0.294,0.061,2.698,0.55,3.818,0.297c1.016-0.23,2.247-0.805,2.702-1.809
				c0.445-0.983,0.047-2.196-1.02-2.555c-1.48-0.497-3.741,1.184-4.569,2.306c-0.049,0.066-0.499,0.844-0.774,1.339
				c0.118-0.316,0.236-0.621,0.353-0.948c0.237-0.644,0.453-1.294,0.689-1.992c0.102-0.341,0.205-0.686,0.309-1.034
				c0.11-0.343,0.184-0.719,0.278-1.082c0.201-0.846,0.364-1.712,0.509-2.589c0.564,0.205,2.58,0.906,3.624,0.833
				c1.039-0.073,2.342-0.455,2.944-1.379c0.589-0.905,0.379-2.164-0.621-2.68c-1.388-0.716-3.877,0.604-4.865,1.588
				c-0.062,0.061-0.692,0.847-1.029,1.285c0.083-0.528,0.168-1.054,0.235-1.59c0.192-1.549,0.339-3.122,0.492-4.691
				c0.047-0.481,0.099-0.959,0.149-1.438c0.2,0.075,2.577,0.96,3.747,0.878c1.039-0.073,2.343-0.455,2.944-1.379
				c0.589-0.905,0.379-2.164-0.621-2.68c-1.388-0.716-3.877,0.604-4.865,1.588c-0.074,0.074-0.979,1.206-1.195,1.505
				c0.112-1.055,0.232-2.106,0.394-3.136c0.22-1.422,0.516-2.806,0.9-4.125c0.093,0.035,2.57,0.97,3.768,0.886
				c1.039-0.073,2.343-0.455,2.945-1.379c0.589-0.905,0.379-2.164-0.621-2.68c-1.388-0.716-3.877,0.604-4.866,1.588
				c-0.077,0.077-1.05,1.296-1.211,1.529c0.023-0.078,0.038-0.162,0.062-0.24c0.429-1.403,1.02-2.708,1.634-3.903
				c0.355-0.695,0.734-1.34,1.116-1.958c0.444,0.221,2.482,1.211,3.568,1.254c1.041,0.042,2.379-0.195,3.078-1.047
				c0.685-0.835,0.614-2.109-0.323-2.732c-1.301-0.864-3.92,0.174-5.01,1.044c-0.059,0.047-0.609,0.595-1.004,0.999
				c0.177-0.277,0.354-0.566,0.529-0.827c0.653-0.984,1.312-1.845,1.902-2.603c0.339-0.428,0.654-0.809,0.952-1.161
				c0.548-0.01,2.758-0.077,3.725-0.53c0.943-0.443,2.021-1.269,2.249-2.348c0.223-1.056-0.427-2.155-1.546-2.276
				c-1.553-0.167-3.398,1.961-3.966,3.235c-0.049,0.11-0.618,1.921-0.589,1.92c0,0,0.027,0,0.033,0
				c-0.294,0.334-0.605,0.695-0.937,1.096c-0.608,0.746-1.287,1.595-1.964,2.569c-0.68,0.971-1.39,2.046-2.037,3.245
				c-0.65,1.201-1.272,2.498-1.74,3.917c-0.005,0.016-0.009,0.033-0.014,0.049c0.008-0.458-0.012-1.738-0.025-1.836
				c-0.179-1.383-1.339-3.951-2.875-4.235c-1.106-0.204-2.044,0.662-2.132,1.739c-0.09,1.099,0.707,2.199,1.484,2.893
				c0.876,0.783,3.308,1.541,3.502,1.6c-0.434,1.355-0.768,2.781-1.027,4.243c-0.149,0.836-0.273,1.682-0.387,2.532
				c-0.006-0.396-0.014-0.75-0.02-0.799c-0.18-1.383-1.339-3.95-2.875-4.234c-1.107-0.205-2.044,0.663-2.132,1.738
				c-0.09,1.099,0.707,2.199,1.484,2.893c0.789,0.704,2.849,1.392,3.397,1.567c-0.04,0.327-0.084,0.652-0.123,0.979
				c-0.188,1.568-0.367,3.133-0.591,4.662c-0.078,0.539-0.176,1.067-0.271,1.595c-0.006-0.351-0.013-0.647-0.019-0.692
				c-0.179-1.383-1.339-3.951-2.874-4.235c-1.107-0.204-2.044,0.662-2.132,1.739c-0.09,1.099,0.707,2.199,1.484,2.893
				c0.752,0.672,2.649,1.324,3.298,1.535c-0.114,0.539-0.227,1.078-0.362,1.595c-0.1,0.351-0.172,0.695-0.292,1.042
				c-0.112,0.345-0.222,0.688-0.331,1.027c-0.235,0.645-0.473,1.312-0.717,1.935c-0.167,0.435-0.334,0.846-0.501,1.261
				c0.084-0.536,0.228-1.588,0.23-1.677c0.021-0.926-0.308-2.433-0.963-3.492c0.004-0.137-0.004-0.273-0.026-0.409
				c-0.171-1.066-1.173-1.858-2.26-1.568c-1.509,0.402-2.467,3.051-2.538,4.444c-0.004,0.082,0.049,0.979,0.093,1.544
				c-0.076-0.328-0.146-0.648-0.228-0.985c-0.158-0.668-0.336-1.329-0.524-2.042c-0.103-0.341-0.207-0.685-0.313-1.033
				c-0.097-0.347-0.244-0.701-0.365-1.056c-0.299-0.816-0.641-1.629-1.004-2.44c0.585-0.14,2.652-0.667,3.482-1.304
				c0.827-0.634,1.703-1.672,1.695-2.774c-0.008-1.08-0.878-2.014-1.996-1.893c-1.553,0.169-2.901,2.642-3.183,4.008
				c-0.017,0.085-0.109,1.088-0.149,1.64c-0.222-0.486-0.441-0.972-0.682-1.456c-0.694-1.398-1.44-2.791-2.178-4.184
				c-0.226-0.427-0.447-0.854-0.669-1.282c0.208-0.048,2.68-0.621,3.609-1.335c0.826-0.634,1.703-1.672,1.695-2.774
				c-0.008-1.079-0.878-2.014-1.996-1.892c-1.553,0.168-2.901,2.642-3.183,4.008c-0.021,0.103-0.151,1.546-0.167,1.915
				c-0.489-0.941-0.968-1.884-1.402-2.833c-0.601-1.308-1.118-2.625-1.525-3.937c0.097-0.022,2.679-0.609,3.631-1.34
				c0.827-0.634,1.703-1.672,1.695-2.774c-0.008-1.08-0.878-2.014-1.996-1.892c-1.553,0.168-2.9,2.642-3.182,4.008
				c-0.022,0.107-0.161,1.66-0.166,1.943c-0.024-0.078-0.058-0.156-0.081-0.234c-0.416-1.407-0.643-2.822-0.79-4.158
				c-0.087-0.776-0.127-1.522-0.149-2.249c0.492-0.06,2.738-0.359,3.667-0.922c0.891-0.54,1.877-1.475,1.99-2.571
				c0.111-1.074-0.651-2.098-1.776-2.1c-1.562-0.003-3.173,2.308-3.603,3.635c-0.023,0.072-0.18,0.832-0.286,1.387
				c-0.005-0.328-0.017-0.667-0.015-0.982c0.002-1.181,0.077-2.263,0.151-3.22c0.046-0.544,0.099-1.035,0.154-1.494
				c0.452-0.311,2.258-1.586,2.814-2.497c0.542-0.889,0.986-2.173,0.581-3.199c-0.396-1.004-1.545-1.562-2.544-1.046
				c-1.388,0.717-1.753,3.511-1.523,4.886c0.02,0.119,0.544,1.943,0.568,1.927c0,0,0.022-0.015,0.027-0.019
				c-0.061,0.44-0.121,0.914-0.177,1.432c-0.095,0.958-0.194,2.04-0.221,3.226c-0.031,1.185-0.031,2.473,0.091,3.83
				c0.121,1.36,0.317,2.785,0.709,4.227c0.005,0.016,0.011,0.033,0.016,0.049c-0.246-0.386-0.969-1.443-1.034-1.517
				c-0.912-1.055-3.296-2.556-4.734-1.946c-1.036,0.44-1.339,1.68-0.819,2.626C692.069,376.41,693.34,376.888,694.371,377.038z"/>
			<path style="fill:#263238;" d="M721.156,369.699c0.024,0.015,0.499-1.822,0.515-1.941c0.192-1.381-0.248-4.164-1.655-4.843
				c-1.013-0.49-2.146,0.099-2.515,1.114c-0.377,1.036,0.101,2.307,0.667,3.182C718.833,368.237,721.154,369.698,721.156,369.699z"
				/>
		</g>
	</g>
</g>
<g id="Rocks">
	<g>
		<path style="fill:#C7C7C7;stroke:#263238;stroke-miterlimit:10;" d="M749.88,499.767v-95.156l-8.944-3.499
			c0,0-62.392-17.289-69.909-19.545c-7.517-2.255-47.358-8.269-47.358-8.269l-12.779,6.014l-12.027,8.269l-60.889-14.283
			l-34.579,3.759l-48.861,22.551l-32.324,24.055l-2.255,12.027l-29.317,17.289c0,0-30.82,7.517-33.075,7.517
			c-2.255,0-57.882,5.262-57.882,5.262l-38.337,24.807l-17.153,9.201H749.88z"/>
		<polygon style="opacity:0.24;" points="531.96,445.463 530.457,471.773 510.161,483.049 453.625,499.767 749.88,499.767 
			749.88,410.807 731.164,403.367 665.765,384.574 625.173,378.561 624.421,388.333 632.69,394.347 640.207,416.146 
			600.366,418.401 583.829,420.657 554.871,404.014 545.491,416.898 504.83,409.788 482.559,404.564 510.161,430.429 		"/>
	</g>
	<g>
		<path style="fill:#C7C7C7;stroke:#263238;stroke-miterlimit:10;" d="M400.975,453.944l-19.114,9.557l-3.823,10.513l28.547,12.709
			c4.583,2.04,9.712,2.513,14.591,1.344l46.7-11.186l-5.557-15.017l-17.994-9.301c-7.386-3.818-15.886-4.896-23.991-3.044
			L400.975,453.944z"/>
		<path style="opacity:0.24;" d="M421.175,488.067l46.444-11.125l0.176-0.278l-5.228-14.131l-8.876-2.694l-25.21,1.854l-2.595,10.01
			l-14.829,7.415l-33.02-5.104l28.547,12.709C411.168,488.763,416.296,489.236,421.175,488.067z"/>
		<path style="fill:none;stroke:#263238;stroke-miterlimit:10;" d="M400.975,453.944l-19.114,9.557l-3.823,10.513l28.547,12.709
			c4.583,2.04,9.712,2.513,14.591,1.344l46.7-11.186l-5.557-15.017l-17.994-9.301c-7.386-3.818-15.886-4.896-23.991-3.044
			L400.975,453.944z"/>
	</g>
	<g>
		<path style="fill:#C7C7C7;stroke:#263238;stroke-miterlimit:10;" d="M554.631,494.143c0,0,46.023-46.752,49.398-48.439
			c3.375-1.688,79.975-33.685,86.163-35.935c6.187-2.25,18.562,13.5,21.375,17.437c2.813,3.938,2.813,23.625,1.688,26.437
			s-1.574,46.124-1.574,46.124H536.069L554.631,494.143z"/>
		<path style="opacity:0.24;" d="M700.601,431.293c0,0-14.088,20.02-15.2,20.761c-1.112,0.741-16.312,31.883-16.312,31.883
			s1.483-29.659-1.112-29.288c-2.595,0.371-7.044,7.044-9.639,13.346c-2.595,6.302-14.088,21.132-15.942,22.244
			c-1.341,0.805-6.564,6.462-9.349,9.527h78.633c0,0,0.449-43.312,1.574-46.124c1.125-2.813,1.125-22.5-1.688-26.437
			c-1.477-2.068-5.593-7.393-10.064-11.659l-0.902,0.175V431.293z"/>
		<path style="fill:none;stroke:#263238;stroke-miterlimit:10;" d="M554.631,494.143c0,0,46.023-46.752,49.398-48.439
			c3.375-1.688,79.975-33.685,86.163-35.935c6.187-2.25,18.562,13.5,21.375,17.437c2.813,3.938,2.813,23.625,1.688,26.437
			s-1.574,46.124-1.574,46.124H536.069L554.631,494.143z"/>
	</g>
	<g>
		<path style="fill:#C7C7C7;stroke:#263238;stroke-miterlimit:10;" d="M468.391,458.723l-20.812,10.687l-4.638,13.045l25.451,4.393
			c0,0,33.496-0.852,33.496-2.539c0-1.688-7.044-10.751-7.044-10.751l-14.088-11.863L468.391,458.723z"/>
		<path style="opacity:0.24;" d="M480.755,461.693l4.82,14.088c0,0-11.863,2.224-12.976,2.595c-1.112,0.371-10.01,0.371-10.01,0.371
			l-15.011-9.337l-4.638,13.045l25.451,4.393l33.496-2.539l-7.044-10.751L480.755,461.693z"/>
	</g>
	<g>
		<path style="fill:#C7C7C7;stroke:#263238;stroke-miterlimit:10;" d="M-0.062,499.767h256.819l-73.826-22.776
			c0,0-0.785-12.566-3.927-18.064c-3.141-5.498-18.849-20.42-18.849-20.42s-22.776-20.42-24.347-22.776
			c-1.571-2.356-1.571-13.351-1.571-15.707c0-2.356-3.141-10.995-9.425-17.278c-6.283-6.283-21.205-6.283-21.205-6.283
			l-77.753,20.42l-25.917-4.203V499.767z"/>
		<g style="opacity:0.24;">
			<path d="M123.243,478.562l-21.205,16.493c0,0-4.959,1.943-12.033,4.712h166.753l-73.826-22.776c0,0-0.785-12.566-3.927-18.064
				c-1.681-2.941-6.956-8.578-11.5-13.185l0.505,4.546l-7.068,11.781l-1.571,9.424L123.243,478.562z"/>
			<path d="M106.75,414.161l-18.064,11.781l41.625-8.639l29.844,21.205c0,0-22.776-20.42-24.347-22.776
				c-1.571-2.356-1.571-13.351-1.571-15.707c0-2.356-3.141-10.995-9.425-17.278l-1.571,17.278L106.75,414.161z"/>
			<path style="fill:none;stroke:#263238;stroke-miterlimit:10;" d="M-0.062,499.767h256.819l-73.826-22.776
				c0,0-0.785-12.566-3.927-18.064c-3.141-5.498-18.849-20.42-18.849-20.42s-22.776-20.42-24.347-22.776
				c-1.571-2.356-1.571-13.351-1.571-15.707c0-2.356-3.141-10.995-9.425-17.278c-6.283-6.283-21.205-6.283-21.205-6.283
				l-77.753,20.42l-25.917-4.203V499.767z"/>
		</g>
	</g>
</g>
<g id="Character">
	<g>
		<g>
			<path style="fill:#FFFFFF;stroke:#263238;stroke-miterlimit:10;" d="M495.207,317.68c0,0-3.024,19.796-2.2,27.77
				c0.825,7.974,2.749,37.668,2.749,37.668s-4.124,2.199-8.248,4.124c-4.124,1.925-10.998-0.275-12.923,1.65
				c-1.925,1.925-2.475,7.149-0.55,9.898c1.925,2.75,3.574,5.224,8.523,5.774c4.949,0.55,11.273,1.375,11.273,1.375
				s7.698,4.399,10.998,3.849s6.599-1.375,7.424-5.774c0.825-4.399,1.925-8.798,0.825-12.098c-1.1-3.299-1.65-3.024-2.475-5.774
				c-0.825-2.749,2.475-25.57,3.849-30.794s0.275-23.921,0-27.22c-0.275-3.299,0.275-6.874,0.275-6.874L495.207,317.68z"/>
			<path style="fill:#A6A6A6;" d="M513.496,394.24c-0.056-0.817-0.176-1.601-0.417-2.324c-1.1-3.299-1.65-3.024-2.475-5.774
				c-0.825-2.749,2.475-25.57,3.849-30.794s0.275-23.921,0-27.22c-0.275-3.299,0.275-6.874,0.275-6.874l-18.422-3.373l0.243,3.636
				c0,0,7.184,15.848,7.48,27.122c0.297,11.274,0.89,46.58,0.89,46.58s4.45,11.571,4.747,12.461
				c0.039,0.116,0.082,0.268,0.129,0.442c0.65-0.459,1.212-1.05,1.652-1.825L513.496,394.24z"/>
			<path style="fill:none;stroke:#263238;stroke-miterlimit:10;" d="M495.207,317.68c0,0-3.024,19.796-2.2,27.77
				c0.825,7.974,2.749,37.668,2.749,37.668s-4.124,2.199-8.248,4.124c-4.124,1.925-10.998-0.275-12.923,1.65
				c-1.925,1.925-2.475,7.149-0.55,9.898c1.925,2.75,3.574,5.224,8.523,5.774c4.949,0.55,11.273,1.375,11.273,1.375
				s7.698,4.399,10.998,3.849s6.599-1.375,7.424-5.774c0.825-4.399,1.925-8.798,0.825-12.098c-1.1-3.299-1.65-3.024-2.475-5.774
				c-0.825-2.749,2.475-25.57,3.849-30.794s0.275-23.921,0-27.22c-0.275-3.299,0.275-6.874,0.275-6.874L495.207,317.68z"/>
			<path style="fill:none;stroke:#263238;stroke-miterlimit:10;" d="M504.83,409.788c3.299-0.55,6.599-1.375,7.424-5.774
				c0.825-4.399,1.925-8.798,0.825-12.098c-1.1-3.299-1.65-3.024-2.475-5.774c-0.227-0.756-0.141-3.036,0.131-6.046
				c-7.89,1.976-13.021-1.104-15.384-3.134c0.247,3.691,0.406,6.156,0.406,6.156s-4.124,2.199-8.248,4.124
				c-4.124,1.925-10.998-0.275-12.923,1.65c-1.925,1.925-2.475,7.149-0.55,9.898c1.925,2.749,3.574,5.224,8.523,5.774
				c4.949,0.55,11.273,1.375,11.273,1.375S501.531,410.337,504.83,409.788z"/>
			<path style="fill:#263238;stroke:#263238;stroke-miterlimit:10;" d="M504.83,409.788c3.299-0.55,6.599-1.375,7.424-5.774
				c0.825-4.399,1.925-8.798,0.825-12.098c-1.1-3.299-1.65-3.024-2.475-5.774c-0.026-0.088-0.048-0.198-0.066-0.327
				c-1.523,0.626-3.137,1.617-4.058,2.801c-1.925,2.474-5.774,4.399-9.348,3.024c-3.574-1.375-1.375-8.523-1.375-8.523
				s-4.124,2.199-8.248,4.124c-4.124,1.925-10.998-0.275-12.923,1.65c-1.925,1.925-2.475,7.149-0.55,9.898
				c1.925,2.749,3.574,5.224,8.523,5.774c4.949,0.55,11.273,1.375,11.273,1.375S501.531,410.337,504.83,409.788z"/>
		</g>
		<g>
			<path style="fill:#FFFFFF;stroke:#263238;stroke-miterlimit:10;" d="M543.323,325.104c0,0-1.375,17.872-0.275,28.32
				c1.1,10.448,1.1,31.344,1.1,31.344s-6.049,3.299-7.424,4.949c-1.375,1.65-1.65,5.224-1.1,6.599
				c0.55,1.375,1.925,3.024,1.925,4.949c0,1.925,1.925,9.073,7.974,9.073c6.049,0,9.073-1.65,9.348-6.324
				c0.275-4.674,0.825-15.672,1.1-17.597c0.275-1.925,9.348-29.969,7.423-42.342c-1.925-12.373-2.199-23.921-2.199-23.921
				L543.323,325.104z"/>
			<path style="fill:#A6A6A6;" d="M551.5,357.836c-0.297,8.604-0.89,26.702-2.373,30.559c-1.484,3.857-2.077,11.274-2.077,11.274
				l6.123,8.605c1.022-0.991,1.588-2.377,1.699-4.26c0.275-4.674,0.825-15.672,1.1-17.597c0.275-1.925,9.348-29.969,7.424-42.342
				c-1.925-12.373-2.2-23.92-2.2-23.92l-17.872,4.949c0,0,1.946,4.547,4.913,14.041C551.203,348.639,551.796,349.232,551.5,357.836z
				"/>
			<path style="fill:none;stroke:#263238;stroke-miterlimit:10;" d="M555.971,386.417c0.068-0.475,0.672-2.543,1.514-5.57
				c-6.418,1.204-10.781-0.302-13.377-1.86c0.04,3.465,0.041,5.78,0.041,5.78s-6.049,3.299-7.424,4.949s-1.65,5.224-1.1,6.599
				c0.55,1.375,1.925,3.024,1.925,4.949c0,1.925,1.925,9.073,7.974,9.073c6.049,0,9.073-1.65,9.348-6.324
				C555.146,399.34,555.696,388.342,555.971,386.417z"/>
			<path style="fill:#263238;stroke:#263238;stroke-miterlimit:10;" d="M545.523,410.337c6.049,0,9.073-1.65,9.348-6.324
				c0.134-2.271,0.332-6.034,0.533-9.525c-0.448-0.269-0.903-0.573-1.357-0.923c-3.574-2.75-7.424,2.749-9.898,0.55
				c-2.475-2.2,0-9.348,0-9.348s-6.049,3.299-7.424,4.949s-1.65,5.224-1.1,6.599c0.55,1.375,1.925,3.024,1.925,4.949
				C537.549,403.189,539.474,410.337,545.523,410.337z"/>
		</g>
		<path style="fill:none;stroke:#263238;stroke-miterlimit:10;" d="M543.323,325.104c0,0-1.375,17.872-0.275,28.32
			c1.1,10.448,1.1,31.344,1.1,31.344s-6.049,3.299-7.424,4.949c-1.375,1.65-1.65,5.224-1.1,6.599
			c0.55,1.375,1.925,3.024,1.925,4.949c0,1.925,1.925,9.073,7.974,9.073c6.049,0,9.073-1.65,9.348-6.324
			c0.275-4.674,0.825-15.672,1.1-17.597c0.275-1.925,9.348-29.969,7.423-42.342c-1.925-12.373-2.199-23.921-2.199-23.921
			L543.323,325.104z"/>
		<g>
			<path style="fill:#263238;stroke:#263238;stroke-miterlimit:10;" d="M504.83,258.841c0,0-11.548,21.171-12.648,28.595
				c-1.1,7.424-3.024,29.419-3.024,29.419s6.049,5.499,15.122,7.149c9.073,1.65,13.472,0.275,13.472,0.275l14.297-25.57
				l1.925,25.845c0,0,11.273,5.224,20.071,2.474c8.798-2.749,11.273-4.949,11.273-4.949s3.849-32.444,3.574-40.967
				c-0.275-8.523-2.75-30.794-2.75-30.794l-57.464,1.925L504.83,258.841z"/>
			<path style="fill:#FFFFFF;stroke:#263238;stroke-miterlimit:10;" d="M508.68,252.242l-3.849,6.599
				c0,0-11.548,21.171-12.648,28.595c-1.1,7.424-3.024,29.419-3.024,29.419s2.781,2.521,7.391,4.662
				c0.365-7.691,1.219-20.68,3.057-29.132c2.267-10.43,11.82-32.81,15.103-40.344L508.68,252.242z"/>
		</g>
		<polygon style="fill:#7D7D7D;stroke:#263238;stroke-miterlimit:10;" points="543.873,259.941 543.323,295.134 547.447,295.134 
			548.272,260.491 		"/>
		<path style="fill:#92E3A9;stroke:#263238;stroke-miterlimit:10;" d="M524.901,158.21c0,0-13.747-0.275-18.147,6.324
			c-4.399,6.599-3.024,51.965-3.024,53.065c0,1.1-0.55,16.497-0.55,16.497s-3.024,7.424-3.024,12.648c0,5.224,2.2,7.424,3.024,9.348
			c0.825,1.925,9.348,8.248,23.096,8.248c13.747,0,31.619-5.774,33.544-7.424c1.925-1.65,10.173-18.422,10.173-18.422
			s7.974-69.287,6.049-73.686c-1.925-4.399-7.149-7.699-10.173-8.523C562.844,155.461,535.075,152.161,524.901,158.21z"/>
		<path style="opacity:0.36;" d="M569.993,238.495c0,0,7.974-69.287,6.049-73.686c-1.213-2.772-3.736-5.106-6.193-6.661
			l-11.326-2.869c-1.793-0.171-3.815-0.327-5.967-0.442l-16.843,4.319c0,0-21.614,4.371-20.399,7.771
			c1.214,3.4,7.285,16.757,5.343,27.685c-1.943,10.928-6.557,9.957-8.014,16.271c-1.457,6.314,0.729,31.57-0.243,35.699
			c-0.971,4.128-4.857,8.5-4.371,10.685c0.189,0.851,7.305,3.766,15.923,7.007c0.759,0.04,1.531,0.066,2.326,0.066
			c13.747,0,31.619-5.774,33.544-7.423C561.745,255.267,569.993,238.495,569.993,238.495z"/>
		<path style="fill:#7D7D7D;stroke:#263238;stroke-miterlimit:10;" d="M503.181,256.092l-0.275,3.849c0,0,3.299,4.949,18.971,5.499
			s28.045-1.925,30.519-2.475c2.475-0.55,12.499-5.315,12.499-5.315l-0.677-2.934c0,0-20.346,5.774-37.393,5.499
			C509.779,259.941,503.181,256.092,503.181,256.092z"/>
		<path style="fill:#92E3A9;stroke:#263238;stroke-miterlimit:10;" d="M520.777,180.756c1.375,5.499,0.275,17.597-0.55,20.071
			c-0.825,2.475-2.75,3.849-2.75,3.849s0,2.199-0.275,3.574c-0.275,1.375-2.75,2.475-2.75,2.475s0.55,2.2,0.825,4.399
			c0.275,2.2-2.475,1.925-2.475,1.925l-2.749,4.124c0,0-3.299-0.55-7.424-0.55c-4.124,0-10.448-1.925-10.448-1.925
			s-0.825-1.925-0.825-3.574c0-1.65,1.375-2.75,1.375-2.75s-1.375-2.2-2.2-3.299c-0.825-1.1,4.399-4.674,4.399-4.674
			s-0.825-12.923,1.65-21.721c2.475-8.798,9.623-20.346,9.623-20.346s4.124-4.949,12.922-1.375"/>
		<path style="fill:#7D7D7D;stroke:#263238;stroke-miterlimit:10;" d="M519.022,156.074c0,0-15.292,5.436-12.817,6.261
			c2.475,0.825,20.446,1.925,23.008,5.912s8.611,9.211,8.611,9.211s5.499-5.224,4.399-7.424
			C541.123,167.833,535.963,155.587,519.022,156.074z"/>
		<g>
			<path style="fill:#FFFFFF;stroke:#263238;stroke-miterlimit:10;" d="M515.745,122.078c0,0,1.229,5.12,1.229,6.963
				c0,1.843-3.072,4.096-2.662,5.529c0.41,1.434,3.277,2.048,3.277,2.048l-1.024,3.072c0,0,3.072,8.192,5.12,9.42
				c2.048,1.229,10.649,2.048,14.54-1.843c3.891-3.891,13.926-7.168,7.372-16.588C537.044,121.259,517.793,118.187,515.745,122.078z
				"/>
			<path style="fill:#263238;stroke:#263238;stroke-miterlimit:10;" d="M526.395,103.237c0,0-1.638,0.614-5.734,3.686
				c-4.096,3.072-4.71,6.963-6.758,7.782c-2.048,0.819-6.963-2.662-6.349,0.205c0.614,2.867,3.482,4.301,3.482,4.301
				s-4.915-0.41-1.843,1.843c3.072,2.253,4.71,2.867,5.325,2.662c0.614-0.205,0.205,0.614,1.638,2.457
				c1.434,1.843,4.301,2.457,4.301,2.457s-0.614,3.277,0,4.915c0.614,1.638-0.819,4.301-0.819,4.301s-3.072,1.638-3.891,4.301
				c-0.819,2.662,0.614,8.396,2.048,9.421c1.434,1.024,6.349,0.819,6.963-0.205c0.614-1.024,2.458-7.577,1.434-10.854
				c-1.024-3.277-1.843-7.373-1.843-8.806c0-1.434-2.867-4.915,1.843-4.71c4.71,0.205,3.277,5.529,2.662,7.168
				c-0.614,1.638,1.229,3.072,2.253,4.096c1.024,1.024,5.939,3.072,7.373,2.867c1.433-0.205,10.649-3.072,11.673-4.505
				c1.024-1.434,3.481-7.577,3.686-8.806c0.205-1.229,4.301-8.192,1.638-13.926c-2.662-5.734-2.662-9.625-9.625-10.854
				c-6.963-1.229-14.745-2.867-15.564-3.277c-0.819-0.41-3.072,1.638-1.229,2.048c1.843,0.41,1.843,0.41,1.843,0.41L526.395,103.237
				z"/>
		</g>
		<path style="fill:#7D7D7D;stroke:#263238;stroke-miterlimit:10;" d="M569.443,154.636c0,0,7.424,3.024,8.248,5.499
			c0.825,2.475,3.299,8.798,1.1,9.073c-2.199,0.275-3.574-0.55-4.949-3.025c-1.375-2.474-5.056-8.062-5.056-8.062
			S565.044,152.711,569.443,154.636z"/>
		<g>
			<path style="fill:#92E3A9;stroke:#263238;stroke-miterlimit:10;" d="M519.022,156.074c0,0-1.434-4.505,0.614-5.734
				c2.048-1.229,5.939-3.482,7.987-5.12c2.048-1.638,11.264-7.373,16.793-8.601c5.529-1.229,5.529-2.867,8.396-1.434
				c2.867,1.434,6.758,4.915,9.216,8.192c2.458,3.277,5.529,3.891,6.349,8.601c0.819,4.71,1.638,5.12,0.41,6.144
				c-1.229,1.024-1.024,7.577-5.325,8.192c-4.301,0.614-19.865-4.301-25.19-5.939C532.948,158.736,519.022,156.074,519.022,156.074z
				"/>
			<path style="opacity:0.36;" d="M562.029,143.376c-2.458-3.277-6.349-6.758-9.216-8.192c-2.867-1.433-2.867,0.205-8.397,1.434
				c-5.529,1.229-14.745,6.963-16.793,8.601c0,0,9.546-2.335,9.303-0.877c-0.243,1.457-3.886,4.371-3.886,4.371
				s-9.041,0.928-8.285,2.65c0.757,1.721,19.213,5.607,18.97,6.821c-0.243,1.214-8.014,0.971-8.014,0.971l3.321,1.453
				c5.908,1.824,20.316,6.292,24.429,5.704c4.301-0.614,4.096-7.168,5.325-8.192c1.229-1.024,0.41-1.434-0.41-6.144
				C567.558,147.268,564.486,146.653,562.029,143.376z"/>
			<path style="fill:none;stroke:#263238;stroke-miterlimit:10;" d="M519.022,156.074c0,0-1.434-4.505,0.614-5.734
				c2.048-1.229,5.939-3.482,7.987-5.12c2.048-1.638,11.264-7.373,16.793-8.601c5.529-1.229,5.529-2.867,8.396-1.434
				c2.867,1.434,6.758,4.915,9.216,8.192c2.458,3.277,5.529,3.891,6.349,8.601c0.819,4.71,1.638,5.12,0.41,6.144
				c-1.229,1.024-1.024,7.577-5.325,8.192c-4.301,0.614-19.865-4.301-25.19-5.939C532.948,158.736,519.022,156.074,519.022,156.074z
				"/>
		</g>
		<g>
			<path style="fill:#7D7D7D;stroke:#263238;stroke-miterlimit:10;" d="M585.784,163.651c0,0-23.961,2.458-35.224,2.458
				s-18.841-2.048-21.298,2.048c-2.458,4.096-3.277,12.492-2.048,17.202c1.229,4.71-1.843,28.466-1.843,28.466
				s-4.096,14.745-3.277,22.118c0.819,7.373,5.529,16.588,6.349,18.841c0.819,2.253,5.529,6.553,13.107,7.168
				c7.577,0.614,25.804-3.891,30.924-5.325c5.12-1.434,12.492-2.662,14.54-8.601c2.048-5.939,4.096-26.828,4.096-33.381
				c0-6.553-1.843-11.468-1.024-15.155c0.819-3.686,1.638-14.131-0.614-23.756C587.218,166.108,588.242,163.856,585.784,163.651z"/>
			<path style="fill:#A6A6A6;stroke:#263238;stroke-miterlimit:10;" d="M564.896,257.651c-5.939,0-7.168,0.205-11.469,1.229
				c-4.301,1.024-7.782,0-11.059-2.457c-3.277-2.458-2.458-2.458-4.096-7.577c-1.638-5.12-6.963-10.24-5.12-17.407
				c1.843-7.168,5.12-21.299,5.734-24.575c0.614-3.277-2.458-14.131-2.458-14.131s-3.072-19.251-4.71-22.937
				c-0.768-1.729-1.715-1.875-2.506-1.549c-2.419,4.126-3.22,12.435-2,17.113c1.229,4.71-1.843,28.466-1.843,28.466
				s-4.096,14.745-3.277,22.118c0.819,7.372,5.529,16.588,6.349,18.841c0.819,2.253,5.529,6.553,13.107,7.168
				c6.112,0.496,19.149-2.339,26.651-4.207C567.406,257.675,566.293,257.651,564.896,257.651z"/>
			<path style="fill:none;stroke:#263238;stroke-miterlimit:10;" d="M530.081,171.843c0,0,0-5.529,1.638-2.048
				c1.638,3.482,3.686,18.636,4.71,22.937c1.024,4.301,4.71,5.529,8.192,6.963c3.481,1.434,36.043-1.638,36.043-1.638
				s8.192,0.614,9.83-5.734"/>
			<path style="fill:#263238;stroke:#263238;stroke-miterlimit:10;" d="M552.121,195.603l1.375,8.248l6.049-0.275l-1.65-8.523
				C557.895,195.053,556.795,193.128,552.121,195.603z"/>
			<path style="fill:#263238;stroke:#263238;stroke-miterlimit:10;" d="M575.217,192.304l0.55,9.623h5.499l-0.275-9.898
				C580.991,192.029,577.142,190.654,575.217,192.304z"/>
			<path style="fill:#7D7D7D;stroke:#263238;stroke-miterlimit:10;" d="M590.889,210.725c0,0-10.173,4.124-28.045,4.124
				c-17.872,0-36.843-6.599-36.843-6.599l-0.631,5.574c0,0,14.928,5.423,27.851,5.698c12.922,0.275,25.295-0.55,29.694-1.375
				c4.399-0.825,8.193-3.505,8.193-3.505S591.439,213.475,590.889,210.725z"/>
			<path style="fill:#7D7D7D;stroke:#263238;stroke-miterlimit:10;" d="M587.04,220.898c0,0-22.271,2.2-29.145,2.475
				c-6.874,0.275-11.823-1.375-13.197,1.1c-1.375,2.475-1.65,13.747-2.2,18.697c-0.55,4.949-1.1,10.173,0.55,10.998
				c1.65,0.825,0.275,3.024,13.472,1.925c13.198-1.1,26.395-2.749,28.595-6.049c2.2-3.299,3.299-22.546,3.299-25.295
				C588.414,221.998,588.69,220.348,587.04,220.898z"/>
			<path style="fill:#A6A6A6;stroke:#263238;stroke-miterlimit:10;" d="M544.698,224.473c-1.375,2.475-1.65,13.747-2.2,18.697
				c-0.55,4.949-1.1,10.173,0.55,10.998c1.476,0.738,0.54,2.574,9.774,2.166c0.67-0.365,1.929-1.192,1.499-1.066
				c-2.066,0.607-3.544-28.852,0-31.344l-0.14-0.561C549.263,223.168,545.81,222.471,544.698,224.473z"/>
		</g>
		<g>
			<path style="fill:#FFFFFF;stroke:#263238;stroke-miterlimit:10;" d="M492.183,218.699c0,0-3.574,37.393-3.574,38.768
				c0,1.375-2.2,7.424-1.65,10.723c0.55,3.299,5.216,7.824,6.866,8.649c1.65,0.825,2.606-2.606,2.606-2.606s0.702-2.744,0.427-4.944
				c-0.275-2.199-0.55-5.499-0.55-5.499s1.1,7.699,3.024,5.774c1.925-1.925,2.2-3.024,1.65-6.874s-2.199-7.149-1.65-9.623
				c0.55-2.475,6.599-22.546,7.973-26.67c1.375-4.124,2.75-5.224,2.75-5.224L492.183,218.699z"/>
			<path style="fill:#A6A6A6;" d="M495.069,254.186c0,0,0.619,5.259-1.856,7.734c-2.475,2.475-3.743,1.883-2.954,6.819
				c0.396,2.476,1.994,5.578,3.489,8.055c0.024,0.013,0.054,0.033,0.078,0.044c1.65,0.825,2.606-2.606,2.606-2.606
				s0.701-2.744,0.427-4.944c-0.275-2.199-0.55-5.499-0.55-5.499s1.1,7.699,3.024,5.774c1.925-1.925,2.2-3.024,1.65-6.874
				c-0.55-3.849-2.199-7.149-1.65-9.623c0.55-2.475,6.599-22.546,7.973-26.67c1.375-4.124,2.75-5.224,2.75-5.224l-9.318-1.29
				L495.069,254.186z"/>
			<path style="fill:none;stroke:#263238;stroke-miterlimit:10;" d="M492.183,218.699c0,0-3.574,37.393-3.574,38.768
				c0,1.375-2.2,7.424-1.65,10.723c0.55,3.299,5.216,7.824,6.866,8.649c1.65,0.825,2.606-2.606,2.606-2.606s0.702-2.744,0.427-4.944
				c-0.275-2.199-0.55-5.499-0.55-5.499s1.1,7.699,3.024,5.774c1.925-1.925,2.2-3.024,1.65-6.874s-2.199-7.149-1.65-9.623
				c0.55-2.475,6.599-22.546,7.973-26.67c1.375-4.124,2.75-5.224,2.75-5.224L492.183,218.699z"/>
			<path style="fill:none;stroke:#263238;stroke-miterlimit:10;" d="M496.307,256.917c0,0,3.574,5.774,0,6.874
				c-3.574,1.1-6.599,3.574-6.049,4.949c0.55,1.375,3.031,4.914,3.856,4.914"/>
		</g>
		<path style="opacity:0.36;" d="M520.413,191.698c0,0,0-17.728-5.586-21.371s-9.957,12.628-10.2,17.728
			c-0.243,5.1-5.343,13.114-5.343,14.571c0,1.457,2.671,1.214,2.914,2.186c0.243,0.971-5.343,4.614-4.614,6.8
			c0.728,2.186,1.7,2.428,1.457,3.4l-0.729,3.157l9.957,0.971l4.128-3.4c1.457-2.914-0.971-4.128,0.243-4.857
			c1.214-0.729,5.965-1.136,4.561-2.632c-1.404-1.496-0.919-5.868-0.433-6.596c0.486-0.729,1.943-0.729,2.428-2.914
			C519.684,196.555,520.413,191.698,520.413,191.698z"/>
	</g>
</g>
</svg>
